<?xml version="1.0" encoding="UTF-8"?>
<svg width="48px" height="62px" viewBox="0 0 48 62" version="1.1" xmlns="http://www.w3.org/2000/svg" xmlns:xlink="http://www.w3.org/1999/xlink">
    <!-- Generator: sketchtool 51.2 (57519) - http://www.bohemiancoding.com/sketch -->
    <title>6DE0794D-84A2-4A01-9670-5BFD58D95BFD</title>
    <desc>Created with sketchtool.</desc>
    <defs></defs>
    <g id="Actual" stroke="none" stroke-width="1" fill="none" fill-rule="evenodd">
        <g id="07-05-01-01-documents" transform="translate(-88.000000, -201.000000)" fill-rule="nonzero">
            <g id="Group-2" transform="translate(88.000000, 201.000000)">
                <path d="M18.5592528,1.09526136 C19.3958091,0.740857539 19.8837924,0.552226739 20.3652209,0.403283206 C20.8990912,0.238115321 21.3915582,0.136903475 21.9472957,0.0781351099 C22.4484434,0.0251395291 22.9712667,0.00602930327 23.8797877,0.001784748 L24.1251596,0.000638385286 C25.0211997,-0.00354786004 25.5630137,0.0123255233 26.076387,0.0639682707 C26.6464856,0.121317295 27.1531078,0.224072677 27.7004989,0.393377951 C28.1934242,0.545837205 28.6986061,0.742320224 29.5222059,1.09529158 L33.9106791,2.9760658 C36.4654375,3.11788752 38.8005248,3.3061209 41.1276089,3.54312943 C44.3066631,3.8669093 46.8088681,6.40091575 47.0924762,9.58380637 C47.6975514,16.3745167 48,23.4143353 48,30.7032719 C48,37.5270373 47.7349232,44.658693 47.2049157,52.0983746 C46.8781083,56.685749 43.2583264,60.3513393 38.6754255,60.7358052 C33.8260861,61.1426258 28.9422168,61.3460255 24.023913,61.3460255 C19.1174159,61.3460255 14.2378794,61.1436012 9.3853984,60.7387387 C4.78524241,60.3549286 1.15666529,56.6659339 0.848857419,52.0600621 C0.283097609,43.5940105 0,36.4761976 0,30.7032719 C-4.73695157e-14,24.5646431 0.320069697,17.5421428 0.959729482,9.63402837 C1.2191373,6.42696929 3.73210901,3.86278913 6.93328604,3.53874426 C9.2602748,3.3031943 11.5935232,3.11606615 14.0120026,2.97502228 L18.5592528,1.09526136 Z M37.3333333,7.7240778 L37.3333333,8.90084392 C37.3333333,9.86169666 37.1770253,10.5849961 36.819574,11.2533719 C36.4628981,11.9202978 35.9315186,12.4516773 35.2645928,12.8083532 C34.596217,13.1658044 33.8729175,13.3221125 32.9120648,13.3221125 L15.0879352,13.3221125 C14.1270825,13.3221125 13.403783,13.1658044 12.7354072,12.8083532 C12.0684814,12.4516773 11.5371019,11.9202978 11.180426,11.2533719 C10.8229747,10.5849961 10.6666667,9.86169666 10.6666667,8.90084392 L10.6666667,7.73314067 C10.6666667,6.85697084 10.7187891,6.35468689 10.873324,5.86144987 C9.64773079,5.95801546 8.42390651,6.06814978 7.20184962,6.19185276 C5.28114347,6.38627967 3.77335989,7.92478833 3.61771522,9.84902356 C2.98352298,17.6895427 2.66666667,24.6415396 2.66666667,30.7032719 C2.66666667,36.4102841 2.94749581,43.4710619 3.50958929,51.8822503 C3.72945202,55.1721583 6.32129377,57.8071555 9.60711903,58.0813055 C14.3857108,58.4800031 19.191277,58.6793589 24.023913,58.6793589 C28.8680084,58.6793589 33.6775045,58.4790566 38.4524975,58.078473 C41.7259982,57.8038546 44.3115565,55.185576 44.5449904,51.9088799 C45.070601,44.5309173 45.3333333,37.4623361 45.3333333,30.7032719 C45.3333333,23.4920561 45.0342738,16.5311214 44.4363329,9.82047847 C44.266168,7.91074411 42.7648448,6.39034004 40.8574123,6.19607213 C39.6168091,6.06971935 38.3738694,5.95745233 37.1285911,5.85927123 C37.2817149,6.35063109 37.3333333,6.85113041 37.3333333,7.7240778 Z M34.5551502,6.57221694 C34.4946882,6.40826367 34.4086982,6.27785646 34.2818185,6.15769877 C34.1081435,5.99322493 33.9187581,5.88077516 33.2670198,5.60145872 L28.4717544,3.54634499 C27.7270011,3.22716498 27.2965024,3.05972891 26.9125412,2.94097168 C26.5348799,2.82416295 26.2028089,2.75681082 25.8094809,2.71724403 C25.4095919,2.67701722 24.9478767,2.66349047 24.137618,2.66727595 L23.8922461,2.66842231 C23.0663187,2.672281 22.6191095,2.68862738 22.2277279,2.73001537 C21.8442171,2.77057103 21.521793,2.83683565 21.1533726,2.95081692 C20.7773911,3.06713745 20.359983,3.22848725 19.5994781,3.55067221 L14.7401369,5.60931325 C14.0856462,5.88658569 13.8953861,5.99863941 13.7207192,6.16313896 C13.5930955,6.28333358 13.5065141,6.4140441 13.4456254,6.57844333 C13.3622925,6.80344174 13.3333333,7.02233968 13.3333333,7.73314067 L13.3333333,8.90084392 C13.3333333,9.44842913 13.3971602,9.74378129 13.5319279,9.99577496 C13.6400709,10.1979849 13.7907943,10.3487082 13.9930042,10.4568513 C14.2449979,10.591619 14.54035,10.6554458 15.0879352,10.6554458 L32.9120648,10.6554458 C33.45965,10.6554458 33.7550021,10.591619 34.0069958,10.4568513 C34.2092057,10.3487082 34.3599291,10.1979849 34.4680721,9.99577496 C34.6028398,9.74378129 34.6666667,9.44842913 34.6666667,8.90084392 L34.6666667,7.7240778 C34.6666667,7.0150076 34.6379115,6.79663891 34.5551502,6.57221694 Z" id="Clipboard-2" fill="#E40000"></path>
                <path d="M12,31.9887792 C11.2636203,31.9887792 10.6666667,31.3918255 10.6666667,30.6554458 C10.6666667,29.9190662 11.2636203,29.3221125 12,29.3221125 L36,29.3221125 C36.7363797,29.3221125 37.3333333,29.9190662 37.3333333,30.6554458 C37.3333333,31.3918255 36.7363797,31.9887792 36,31.9887792 L12,31.9887792 Z" id="Path" fill="#292F48"></path>
                <path d="M12,39.9887792 C11.2636203,39.9887792 10.6666667,39.3918255 10.6666667,38.6554458 C10.6666667,37.9190662 11.2636203,37.3221125 12,37.3221125 L36,37.3221125 C36.7363797,37.3221125 37.3333333,37.9190662 37.3333333,38.6554458 C37.3333333,39.3918255 36.7363797,39.9887792 36,39.9887792 L12,39.9887792 Z" id="Path" fill="#292F48"></path>
                <path d="M12,23.9887792 C11.2636203,23.9887792 10.6666667,23.3918255 10.6666667,22.6554458 C10.6666667,21.9190662 11.2636203,21.3221125 12,21.3221125 L36,21.3221125 C36.7363797,21.3221125 37.3333333,21.9190662 37.3333333,22.6554458 C37.3333333,23.3918255 36.7363797,23.9887792 36,23.9887792 L12,23.9887792 Z" id="Path" fill="#292F48"></path>
                <path d="M12,47.9887792 C11.2636203,47.9887792 10.6666667,47.3918255 10.6666667,46.6554458 C10.6666667,45.9190662 11.2636203,45.3221125 12,45.3221125 L21.3314737,45.3221125 C22.0678533,45.3221125 22.664807,45.9190662 22.664807,46.6554458 C22.664807,47.3918255 22.0678533,47.9887792 21.3314737,47.9887792 L12,47.9887792 Z" id="Path" fill="#292F48"></path>
            </g>
        </g>
    </g>
</svg>