<?xml version="1.0" encoding="UTF-8"?>
<svg width="62px" height="60px" viewBox="0 0 62 60" version="1.1" xmlns="http://www.w3.org/2000/svg" xmlns:xlink="http://www.w3.org/1999/xlink">
    <!-- Generator: sketchtool 51.2 (57519) - http://www.bohemiancoding.com/sketch -->
    <title>99038BED-391D-4981-AE26-31D3E44B0292</title>
    <desc>Created with sketchtool.</desc>
    <defs></defs>
    <g id="Actual" stroke="none" stroke-width="1" fill="none" fill-rule="evenodd">
        <g id="07-05-01-01-documents" transform="translate(-524.000000, -201.000000)" fill-rule="nonzero">
            <g id="Group-3" transform="translate(524.000000, 201.000000)">
                <path d="M62,38.0454221 C62,38.8236415 61.3691285,39.454513 60.5909091,39.454513 C59.8126897,39.454513 59.1818182,38.8236415 59.1818182,38.0454221 C59.1818182,31.3146985 57.33364,25.575908 53.6370889,20.7789046 C53.1620717,20.1624761 53.2767081,19.2776845 53.8931366,18.8026673 C54.5095651,18.32765 55.3943567,18.4422865 55.8693739,19.058715 C59.9563931,24.3624276 62,30.7080453 62,38.0454221 Z M6.16855932,19.0273107 C6.64353242,18.4108482 7.5283158,18.2961484 8.1447783,18.7711215 C8.76124081,19.2460946 8.87594064,20.1308779 8.40096754,20.7473404 C4.6785783,25.5785896 2.81818182,31.327933 2.81818182,38.0454221 C2.81818182,38.8236415 2.18731033,39.454513 1.40909091,39.454513 C0.630871489,39.454513 0,38.8236415 0,38.0454221 C0,30.7200792 2.05671853,24.3640249 6.16855932,19.0273107 Z M4.25349786,36.636295 C3.4764157,36.6363086 2.84602734,37.265417 2.84443375,38.0428484 C2.83342133,42.3613416 3.10271255,46.9355901 3.65281976,51.7919646 C3.87645873,53.7662609 5.44486149,55.3183428 7.4213886,55.5213205 C13.5183663,56.1474306 21.3802494,56.4614374 31,56.4614374 C40.6210774,56.4614374 48.4838017,56.1473439 54.5811314,55.5210617 C56.5563416,55.3181796 58.12413,53.7679346 58.3492245,51.7951321 C58.9044732,46.9287809 59.1818182,42.3454061 59.1818182,38.0453862 C59.1818182,37.2671707 58.5509596,36.6363029 57.7727399,36.6362953 C51.666775,36.6361882 45.5607101,36.6361177 39.4545455,36.636084 C39.4545455,41.3276848 35.6693165,45.1129138 31,45.1129138 C26.3306835,45.1129138 22.5454545,41.3276848 22.5454545,36.6583683 C16.4566801,36.6361182 10.3593612,36.6361884 4.25349786,36.636295 Z M25.3636364,35.2269863 L25.3636364,36.6583683 C25.3636364,39.771246 27.8871223,42.294732 31,42.294732 C34.1128777,42.294732 36.6363636,39.771246 36.6363636,36.6583683 L36.6363636,35.226986 C36.6363636,34.448764 37.2672391,33.8178915 38.045461,33.8178951 C44.621353,33.8179253 51.1971291,33.8179981 57.7727785,33.8181135 C60.1074183,33.8181363 62,35.7107456 62,38.0453862 C62,42.4557816 61.7162283,47.1453627 61.149239,52.1146116 C60.7740817,55.4026149 58.1611005,57.9863571 54.8690836,58.3244939 C48.6636596,58.961879 40.7096456,59.2796192 31,59.2796192 C21.2916996,59.2796192 13.3385449,58.961967 7.13349509,58.3247588 C3.83928104,57.9864623 1.22527791,55.3996607 0.852546235,52.1091664 C0.290603032,47.1483031 0.0149627637,42.466208 0.0261985905,38.0628107 C0.0310371122,35.7054794 1.92220239,33.8181539 4.25344865,33.8181132 C10.8303924,33.8179984 17.3974225,33.8179258 23.9545389,33.8178954 C24.7327609,33.8178918 25.3636364,34.4487643 25.3636364,35.2269863 Z M8.45454545,34.7742817 C8.45454545,35.5525011 7.82367397,36.1833726 7.04545455,36.1833726 C6.26723513,36.1833726 5.63636364,35.5525011 5.63636364,34.7742817 L5.636438,27.678346 C5.66182826,25.2069806 6.02948283,18.4785301 6.740945,7.44063088 C6.96287615,3.99726994 9.64598421,1.22131471 13.0798084,0.882407921 C19.0401597,0.294141497 25.0078504,6.25762068e-16 30.9827137,0 C36.9653635,0 42.9479738,0.294908626 48.9303765,0.884700922 C52.3567696,1.22249477 55.037149,3.98722753 55.2686501,7.42244077 C55.7867701,15.1107556 56.0449792,19.0272569 56.0578104,19.4031254 C56.1538525,22.2165274 56.2390616,25.0340901 56.313927,27.8929419 L56.313927,35.2114734 C56.313927,35.9896929 55.6830555,36.6205643 54.9048361,36.6205643 C54.1266167,36.6205643 53.4957452,35.9896929 53.4957452,35.2114734 L53.4962344,27.9300704 C53.4220505,25.1156404 53.3370621,22.3053752 53.2412692,19.4992747 C53.2302172,19.1755238 52.9638984,15.1360152 52.4568459,7.61192989 C52.3179453,5.55080163 50.7097183,3.89196273 48.6538813,3.6892863 C42.763252,3.10854175 36.8729179,2.81818182 30.9827137,2.81818182 C25.1003414,2.81818182 19.2250286,3.1077701 13.3566085,3.68696323 C11.2963133,3.89030737 9.68645003,5.55587885 9.55329116,7.62189812 C8.84589555,18.5967073 8.47910763,25.3092972 8.45454545,27.6928219 L8.45454545,34.7742817 Z" id="Inbox" fill="#E40000"></path>
                <path d="M18.3181818,30.9999676 C17.5399624,30.9999676 16.9090909,30.3690961 16.9090909,29.5908766 C16.9090909,28.8126572 17.5399624,28.1817857 18.3181818,28.1817857 L43.6818182,28.1817857 C44.4600376,28.1817857 45.0909091,28.8126572 45.0909091,29.5908766 C45.0909091,30.3690961 44.4600376,30.9999676 43.6818182,30.9999676 L18.3181818,30.9999676 Z" id="Line" fill="#292F48"></path>
                <path d="M18.3181818,22.5454221 C17.5399624,22.5454221 16.9090909,21.9145506 16.9090909,21.1363312 C16.9090909,20.3581118 17.5399624,19.7272403 18.3181818,19.7272403 L43.6818182,19.7272403 C44.4600376,19.7272403 45.0909091,20.3581118 45.0909091,21.1363312 C45.0909091,21.9145506 44.4600376,22.5454221 43.6818182,22.5454221 L18.3181818,22.5454221 Z" id="Line" fill="#292F48"></path>
                <path d="M18.3181818,14.0908766 C17.5399624,14.0908766 16.9090909,13.4600052 16.9090909,12.6817857 C16.9090909,11.9035663 17.5399624,11.2726948 18.3181818,11.2726948 L28.1798528,11.2726948 C28.9580723,11.2726948 29.5889437,11.9035663 29.5889437,12.6817857 C29.5889437,13.4600052 28.9580723,14.0908766 28.1798528,14.0908766 L18.3181818,14.0908766 Z" id="Line" fill="#292F48"></path>
            </g>
        </g>
    </g>
</svg>