<?xml version="1.0" encoding="UTF-8"?>
<svg width="42px" height="42px" viewBox="0 0 42 42" version="1.1" xmlns="http://www.w3.org/2000/svg" xmlns:xlink="http://www.w3.org/1999/xlink">
    <!-- Generator: sketchtool 51.2 (57519) - http://www.bohemiancoding.com/sketch -->
    <title>AA41327E-1B9B-4A10-8559-4FB0681CA7E8</title>
    <desc>Created with sketchtool.</desc>
    <defs></defs>
    <g id="Actual" stroke="none" stroke-width="1" fill="none" fill-rule="evenodd">
        <g id="01-01-01-01-dashboard" transform="translate(-510.000000, -1062.000000)" fill="#CCCCCC">
            <g id="Shape-Copy-2" transform="translate(488.000000, 1040.000000)">
                <g id="56-design-angle" transform="translate(22.000000, 22.000000)">
                    <g id="icons">
                        <path d="M41.125,40.25 L20.9545,40.25 C20.73925,35.37625 18.76525,30.961 15.63625,27.601 L17.84125,25.396 C18.1825,25.05475 18.1825,24.5 17.84125,24.15875 C17.5,23.8175 16.94525,23.8175 16.604,24.15875 L14.3885,26.37425 C11.01625,23.32925 6.608,21.41125 1.75,21.203 L1.75,0.875 C1.75,0.392 1.358,0 0.875,0 C0.392,0 0,0.392 0,0.875 L0,41.125 C0,41.23875 0.02275,41.3525 0.0665,41.45925 C0.15575,41.67275 0.3255,41.84425 0.54075,41.9335 C0.6475,41.97725 0.76125,42 0.875,42 L41.125,42 C41.608,42 42,41.608 42,41.125 C42,40.642 41.608,40.25 41.125,40.25 L41.125,40.25 Z M19.2045,40.25 L2.9015,40.25 C3.05025,39.92625 2.99775,39.536 2.73175,39.26825 C2.46575,39.0005 2.07375,38.94975 1.75,39.0985 L1.75,22.953 C11.18075,23.39575 18.75475,30.90325 19.2045,40.25 L19.2045,40.25 Z" id="Shape"></path>
                        <path d="M21.6405,19.12225 L19.124,21.63875 C18.78275,21.98 18.78275,22.53475 19.124,22.876 C19.2955,23.0475 19.5195,23.1315 19.7435,23.1315 C19.9675,23.1315 20.1915,23.04575 20.363,22.876 L22.8795,20.3595 C23.22075,20.01825 23.22075,19.4635 22.8795,19.12225 C22.53825,18.781 21.9835,18.77925 21.6405,19.12225 L21.6405,19.12225 Z" id="Shape"></path>
                        <path d="M9.667,33.208 C9.891,33.208 10.115,33.12225 10.2865,32.9525 L12.80475,30.43425 C13.146,30.093 13.146,29.53825 12.80475,29.197 C12.4635,28.85575 11.90875,28.85575 11.5675,29.197 L9.04925,31.71525 C8.708,32.0565 8.708,32.61125 9.04925,32.9525 C9.22075,33.12225 9.443,33.208 9.667,33.208 L9.667,33.208 Z" id="Shape"></path>
                        <path d="M4.6305,38.2445 C4.8545,38.2445 5.0785,38.15875 5.25,37.989 L7.76825,35.47075 C8.1095,35.1295 8.1095,34.57475 7.76825,34.2335 C7.427,33.89225 6.87225,33.89225 6.531,34.2335 L4.01275,36.75 C3.6715,37.09125 3.6715,37.646 4.01275,37.98725 C4.18425,38.15875 4.40825,38.2445 4.6305,38.2445 L4.6305,38.2445 Z" id="Shape"></path>
                        <path d="M26.677,14.08575 L24.1605,16.60225 C23.81925,16.9435 23.81925,17.49825 24.1605,17.8395 C24.332,18.011 24.556,18.095 24.78,18.095 C25.004,18.095 25.228,18.00925 25.3995,17.8395 L27.916,15.323 C28.25725,14.98175 28.25725,14.427 27.916,14.08575 C27.57475,13.7445 27.01825,13.7445 26.677,14.08575 L26.677,14.08575 Z" id="Shape"></path>
                        <path d="M31.71525,9.0475 L29.197,11.56575 C28.85575,11.907 28.85575,12.46175 29.197,12.803 C29.3685,12.9745 29.5925,13.0585 29.8165,13.0585 C30.0405,13.0585 30.2645,12.97275 30.436,12.803 L32.95425,10.28475 C33.2955,9.9435 33.2955,9.38875 32.95425,9.0475 C32.613,8.70625 32.0565,8.70625 31.71525,9.0475 L31.71525,9.0475 Z" id="Shape"></path>
                        <path d="M36.75175,4.011 L34.2335,6.52925 C33.89225,6.8705 33.89225,7.42525 34.2335,7.7665 C34.405,7.938 34.629,8.022 34.853,8.022 C35.077,8.022 35.301,7.93625 35.4725,7.7665 L37.99075,5.24825 C38.332,4.907 38.332,4.35225 37.99075,4.011 C37.6495,3.66975 37.093,3.66975 36.75175,4.011 L36.75175,4.011 Z" id="Shape"></path>
                        <path d="M40.5055,0.2555 L39.26825,1.49275 C38.927,1.834 38.927,2.38875 39.26825,2.73 C39.43975,2.9015 39.66375,2.9855 39.88775,2.9855 C40.11175,2.9855 40.33575,2.89975 40.50725,2.73 L41.7445,1.49275 C42.08575,1.1515 42.08575,0.59675 41.7445,0.2555 C41.40325,-0.08575 40.8485,-0.08575 40.5055,0.2555 L40.5055,0.2555 Z" id="Shape"></path>
                    </g>
                </g>
            </g>
        </g>
    </g>
</svg>