<?xml version="1.0" encoding="UTF-8"?>
<svg width="44px" height="44px" viewBox="0 0 44 44" version="1.1" xmlns="http://www.w3.org/2000/svg" xmlns:xlink="http://www.w3.org/1999/xlink">
    <!-- Generator: sketchtool 51.2 (57519) - http://www.bohemiancoding.com/sketch -->
    <title>4EF1C2E5-6B66-435F-A2C0-66D72FD9C245</title>
    <desc>Created with sketchtool.</desc>
    <defs></defs>
    <g id="Actual" stroke="none" stroke-width="1" fill="none" fill-rule="evenodd">
        <g id="01-01-01-01-dashboard" transform="translate(-726.000000, -1208.000000)" fill="#CCCCCC">
            <g id="Shape-Copy-7" transform="translate(704.000000, 1184.000000)">
                <g id="ecommerce-barcode-scanner" transform="translate(22.000000, 24.000000)">
                    <g id="icons">
                        <path d="M0.916666667,11 C1.42266667,11 1.83333333,10.5893333 1.83333333,10.0833333 L1.83333333,1.83333333 L10.0833333,1.83333333 C10.5893333,1.83333333 11,1.42266667 11,0.916666667 C11,0.410666667 10.5893333,0 10.0833333,0 L0.916666667,0 C0.410666667,0 0,0.410666667 0,0.916666667 L0,10.0833333 C0,10.5893333 0.410666667,11 0.916666667,11 L0.916666667,11 Z" id="Shape"></path>
                        <path d="M43.0833333,0 L33.9166667,0 C33.4106667,0 33,0.410666667 33,0.916666667 C33,1.42266667 33.4106667,1.83333333 33.9166667,1.83333333 L42.1666667,1.83333333 L42.1666667,10.0833333 C42.1666667,10.5893333 42.5773333,11 43.0833333,11 C43.5893333,11 44,10.5893333 44,10.0833333 L44,0.916666667 C44,0.410666667 43.5893333,0 43.0833333,0 L43.0833333,0 Z" id="Shape"></path>
                        <path d="M43.0833333,33 C42.5773333,33 42.1666667,33.4106667 42.1666667,33.9166667 L42.1666667,42.1666667 L33.9166667,42.1666667 C33.4106667,42.1666667 33,42.5773333 33,43.0833333 C33,43.5893333 33.4106667,44 33.9166667,44 L43.0833333,44 C43.5893333,44 44,43.5893333 44,43.0833333 L44,33.9166667 C44,33.4106667 43.5893333,33 43.0833333,33 L43.0833333,33 Z" id="Shape"></path>
                        <path d="M0.916666667,44 L10.0833333,44 C10.5893333,44 11,43.5893333 11,43.0833333 C11,42.5773333 10.5893333,42.1666667 10.0833333,42.1666667 L1.83333333,42.1666667 L1.83333333,33.9166667 C1.83333333,33.4106667 1.42266667,33 0.916666667,33 C0.410666667,33 0,33.4106667 0,33.9166667 L0,43.0833333 C0,43.5893333 0.410666667,44 0.916666667,44 L0.916666667,44 Z" id="Shape"></path>
                        <path d="M43.0833333,20.1666667 L38.5,20.1666667 L38.5,11.9166667 C38.5,11.4106667 38.0893333,11 37.5833333,11 C37.0773333,11 36.6666667,11.4106667 36.6666667,11.9166667 L36.6666667,20.1666667 L34.8333333,20.1666667 L34.8333333,11.9166667 C34.8333333,11.4106667 34.4226667,11 33.9166667,11 C33.4106667,11 33,11.4106667 33,11.9166667 L33,20.1666667 L31.1666667,20.1666667 L31.1666667,11.9166667 C31.1666667,11.4106667 30.756,11 30.25,11 C29.744,11 29.3333333,11.4106667 29.3333333,11.9166667 L29.3333333,20.1666667 L25.6666667,20.1666667 L25.6666667,11.9166667 C25.6666667,11.4106667 25.256,11 24.75,11 C24.244,11 23.8333333,11.4106667 23.8333333,11.9166667 L23.8333333,20.1666667 L22,20.1666667 L22,11.9166667 C22,11.4106667 21.5893333,11 21.0833333,11 C20.5773333,11 20.1666667,11.4106667 20.1666667,11.9166667 L20.1666667,20.1666667 L16.5,20.1666667 L16.5,11.9166667 C16.5,11.4106667 16.0893333,11 15.5833333,11 C15.0773333,11 14.6666667,11.4106667 14.6666667,11.9166667 L14.6666667,20.1666667 L12.8333333,20.1666667 L12.8333333,11.9166667 C12.8333333,11.4106667 12.4226667,11 11.9166667,11 C11.4106667,11 11,11.4106667 11,11.9166667 L11,20.1666667 L7.33333333,20.1666667 L7.33333333,11.9166667 C7.33333333,11.4106667 6.92266667,11 6.41666667,11 C5.91066667,11 5.5,11.4106667 5.5,11.9166667 L5.5,20.1666667 L0.916666667,20.1666667 C0.410666667,20.1666667 0,20.5773333 0,21.0833333 C0,21.5893333 0.410666667,22 0.916666667,22 L5.5,22 L5.5,32.0833333 C5.5,32.5893333 5.91066667,33 6.41666667,33 C6.92266667,33 7.33333333,32.5893333 7.33333333,32.0833333 L7.33333333,22 L11,22 L11,30.25 C11,30.756 11.4106667,31.1666667 11.9166667,31.1666667 C12.4226667,31.1666667 12.8333333,30.756 12.8333333,30.25 L12.8333333,22 L14.6666667,22 L14.6666667,30.25 C14.6666667,30.756 15.0773333,31.1666667 15.5833333,31.1666667 C16.0893333,31.1666667 16.5,30.756 16.5,30.25 L16.5,22 L20.1666667,22 L20.1666667,32.0833333 C20.1666667,32.5893333 20.5773333,33 21.0833333,33 C21.5893333,33 22,32.5893333 22,32.0833333 L22,22 L23.8333333,22 L23.8333333,32.0833333 C23.8333333,32.5893333 24.244,33 24.75,33 C25.256,33 25.6666667,32.5893333 25.6666667,32.0833333 L25.6666667,22 L29.3333333,22 L29.3333333,30.25 C29.3333333,30.756 29.744,31.1666667 30.25,31.1666667 C30.756,31.1666667 31.1666667,30.756 31.1666667,30.25 L31.1666667,22 L33,22 L33,30.25 C33,30.756 33.4106667,31.1666667 33.9166667,31.1666667 C34.4226667,31.1666667 34.8333333,30.756 34.8333333,30.25 L34.8333333,22 L36.6666667,22 L36.6666667,32.0833333 C36.6666667,32.5893333 37.0773333,33 37.5833333,33 C38.0893333,33 38.5,32.5893333 38.5,32.0833333 L38.5,22 L43.0833333,22 C43.5893333,22 44,21.5893333 44,21.0833333 C44,20.5773333 43.5893333,20.1666667 43.0833333,20.1666667 L43.0833333,20.1666667 Z" id="Shape"></path>
                    </g>
                </g>
            </g>
        </g>
    </g>
</svg>