<?xml version="1.0" encoding="UTF-8"?>
<svg width="42px" height="42px" viewBox="0 0 42 42" version="1.1" xmlns="http://www.w3.org/2000/svg" xmlns:xlink="http://www.w3.org/1999/xlink">
    <!-- Generator: sketchtool 51.2 (57519) - http://www.bohemiancoding.com/sketch -->
    <title>CA6AF3E6-78E0-4678-AAC8-5C340F1C20F9</title>
    <desc>Created with sketchtool.</desc>
    <defs></defs>
    <g id="Actual" stroke="none" stroke-width="1" fill="none" fill-rule="evenodd">
        <g id="01-01-01-01-dashboard" transform="translate(-295.000000, -1062.000000)" fill="#E40000">
            <g id="Shape-Copy" transform="translate(272.000000, 1040.000000)">
                <g id="education-big-bang-2" transform="translate(23.000000, 22.000000)">
                    <g id="icons">
                        <path d="M38.5,19.25 C36.9075,19.25 35.57575,20.32625 35.15225,21.784 L27.99475,20.94925 C27.979,18.725 26.90625,16.76675 25.27175,15.4945 L29.24775,8.50675 C29.6835,8.652 30.14025,8.75 30.625,8.75 C33.03825,8.75 35,6.78825 35,4.375 C35,1.96175 33.03825,0 30.625,0 C28.21175,0 26.25,1.96175 26.25,4.375 C26.25,5.6735 26.82925,6.83025 27.73225,7.63175 L23.779,14.581 C22.925,14.21 21.987,14 21,14 C18.95425,14 17.129,14.89775 15.848,16.2995 L9.793,11.33125 C10.2305,10.5665 10.5,9.69325 10.5,8.75 C10.5,5.8555 8.1445,3.5 5.25,3.5 C2.3555,3.5 0,5.8555 0,8.75 C0,11.6445 2.3555,14 5.25,14 C6.5695,14 7.763,13.49425 8.68525,12.6875 L14.84175,17.73975 C14.322,18.718 14,19.817 14,21 C14,22.344 14.399,23.58825 15.057,24.654 L7.2065,30.8175 C6.44175,30.16125 5.46,29.75 4.375,29.75 C1.96175,29.75 0,31.71175 0,34.125 C0,36.53825 1.96175,38.5 4.375,38.5 C6.78825,38.5 8.75,36.53825 8.75,34.125 C8.75,33.43025 8.57325,32.781 8.28275,32.19825 L16.1455,26.026 C17.4055,27.24225 19.1135,28 21,28 C21.98875,28 22.925,27.79 23.779,27.419 L28.82775,36.267 C28.3185,36.87425 28,37.64775 28,38.5 C28,40.43025 29.56975,42 31.5,42 C33.43025,42 35,40.43025 35,38.5 C35,36.56975 33.43025,35 31.5,35 C31.06075,35 30.646,35.091 30.2575,35.238 L25.2735,26.50375 C26.4915,25.55525 27.38575,24.22875 27.77075,22.68525 L35.098,23.53925 C35.4585,25.08975 36.84275,26.25 38.5,26.25 C40.43025,26.25 42,24.68025 42,22.75 C42,20.81975 40.43025,19.25 38.5,19.25 L38.5,19.25 Z M30.625,1.75 C32.07225,1.75 33.25,2.92775 33.25,4.375 C33.25,5.82225 32.07225,7 30.625,7 C30.14375,7 29.69925,6.86 29.31075,6.63425 C29.309,6.63425 29.309,6.6325 29.30725,6.63075 C29.3055,6.629 29.30375,6.63075 29.302,6.629 C28.52675,6.17225 28,5.3375 28,4.375 C28,2.92775 29.17775,1.75 30.625,1.75 L30.625,1.75 Z M5.25,12.25 C3.31975,12.25 1.75,10.68025 1.75,8.75 C1.75,6.81975 3.31975,5.25 5.25,5.25 C7.18025,5.25 8.75,6.81975 8.75,8.75 C8.75,10.68025 7.18025,12.25 5.25,12.25 L5.25,12.25 Z M33.25,38.5 C33.25,39.466 32.466,40.25 31.5,40.25 C30.534,40.25 29.75,39.466 29.75,38.5 C29.75,37.534 30.534,36.75 31.5,36.75 C32.466,36.75 33.25,37.534 33.25,38.5 L33.25,38.5 Z M4.375,36.75 C2.92775,36.75 1.75,35.57225 1.75,34.125 C1.75,32.67775 2.92775,31.5 4.375,31.5 C5.82225,31.5 7,32.67775 7,34.125 C7,35.57225 5.82225,36.75 4.375,36.75 L4.375,36.75 Z M21,26.25 C18.1055,26.25 15.75,23.8945 15.75,21 C15.75,18.1055 18.1055,15.75 21,15.75 C23.8945,15.75 26.25,18.1055 26.25,21 C26.25,23.8945 23.8945,26.25 21,26.25 L21,26.25 Z M38.5,24.5 C37.534,24.5 36.75,23.716 36.75,22.75 C36.75,21.784 37.534,21 38.5,21 C39.466,21 40.25,21.784 40.25,22.75 C40.25,23.716 39.466,24.5 38.5,24.5 L38.5,24.5 Z" id="Shape"></path>
                    </g>
                </g>
            </g>
        </g>
    </g>
</svg>