<?xml version="1.0" encoding="UTF-8"?>
<svg width="22px" height="22px" viewBox="0 0 22 22" version="1.1" xmlns="http://www.w3.org/2000/svg" xmlns:xlink="http://www.w3.org/1999/xlink">
    <!-- Generator: sketchtool 51.2 (57519) - http://www.bohemiancoding.com/sketch -->
    <title>FF75A4EC-AB0D-4247-AA6B-36476A419EB9</title>
    <desc>Created with sketchtool.</desc>
    <defs></defs>
    <g id="Actual" stroke="none" stroke-width="1" fill="none" fill-rule="evenodd">
        <g id="07-03-01-01-profile-leader-edit-mentor" transform="translate(-69.000000, -1494.000000)" fill="#A6A6A6">
            <path d="M71.75,1497.4375 L88.25,1497.4375 L88.25,1504.05125 C88.25,1505.44 87.41125,1506.375 86.14625,1506.375 L73.85375,1506.375 C72.58875,1506.375 71.75,1505.44 71.75,1504.05125 L71.75,1497.4375 Z M71.4475,1494 L88.5525,1494 C89.99625,1494 90.71125,1494.6875 91,1496.0625 L69,1496.0625 C69.28875,1494.6875 70.00375,1494 71.4475,1494 Z M73.85375,1505 L86.14625,1505 C86.58625,1505 86.875,1504.615 86.875,1504.05125 L86.875,1502.03 C86.875,1502.03 86.1875,1501.27375 85.23875,1501.27375 C84.29,1501.27375 83.97375,1502.04375 82.95625,1502.04375 C81.71875,1502.04375 81.44375,1500.875 80,1500.875 C78.55625,1500.875 78.28125,1502.04375 77.04375,1502.04375 C76.04,1502.04375 75.71,1501.27375 74.76125,1501.27375 C73.8125,1501.27375 73.125,1502.03 73.125,1502.03 L73.125,1504.05125 C73.125,1504.615 73.41375,1505 73.85375,1505 Z M79.3125,1505.495 L80.6875,1505.495 L80.6875,1507.48875 C80.6875,1508.465 80.6875,1508.465 80,1508.465 C79.3125,1508.465 79.3125,1508.465 79.3125,1507.48875 L79.3125,1505.495 Z M79.0375,1509.4825 C79.0375,1510.04625 80,1511.435 80,1511.435 C80,1511.435 80.94875,1510.04625 80.94875,1509.4825 C80.94875,1508.795 80.48125,1508.4375 80,1508.4375 C79.4775,1508.4375 79.0375,1508.795 79.0375,1509.4825 Z M77.34625,1510.21125 C77.34625,1508.6025 78.47375,1507.40625 79.98625,1507.40625 C81.485,1507.40625 82.64,1508.6025 82.64,1510.21125 C82.64,1511.86125 79.98625,1516 79.98625,1516 C79.98625,1516 77.34625,1511.86125 77.34625,1510.21125 Z" id="birthday" transform="translate(80.000000, 1505.000000) scale(-1, 1) rotate(-180.000000) translate(-80.000000, -1505.000000) "></path>
        </g>
    </g>
</svg>