<?xml version="1.0" encoding="UTF-8"?>
<svg width="42px" height="41px" viewBox="0 0 42 41" version="1.1" xmlns="http://www.w3.org/2000/svg" xmlns:xlink="http://www.w3.org/1999/xlink">
    <!-- Generator: sketchtool 51.2 (57519) - http://www.bohemiancoding.com/sketch -->
    <title>16B8B45E-8680-419B-9282-609022E7A616</title>
    <desc>Created with sketchtool.</desc>
    <defs></defs>
    <g id="Actual" stroke="none" stroke-width="1" fill="none" fill-rule="evenodd">
        <g id="01-01-01-01-dashboard" transform="translate(-78.000000, -1348.000000)" fill="#E40000">
            <g id="Shape-Copy-8" transform="translate(56.000000, 1328.000000)">
                <g id="building-shop-confirm" transform="translate(22.000000, 20.000000)">
                    <g id="icons">
                        <path d="M36.2352308,21.6768821 L36.2352308,16.8717949 L38.7491282,16.8717949 C39.7327538,16.8717949 40.6016513,16.3082769 41.0133231,15.4005744 C41.4351179,14.4709385 41.2832718,13.4181385 40.6320205,12.6740923 L36.1846154,7.28861538 L36.1846154,0.843589744 C36.1846154,0.377928205 35.8066872,0 35.3410256,0 L6.65897436,0 C6.19331282,0 5.81538462,0.377928205 5.81538462,0.843589744 L5.81538462,7.28861538 L1.38485128,12.6555333 C0.716728205,13.4181385 0.564882051,14.4709385 0.988364103,15.4005744 C1.39834872,16.3082769 2.26555897,16.8717949 3.25087179,16.8717949 L5.76476923,16.8717949 L5.76476923,39.6487179 C5.76476923,40.1143795 6.14269744,40.4923077 6.60835897,40.4923077 L15.0948718,40.4923077 L31.1230769,40.4923077 C32.7748256,40.4923077 34.3422154,40.1076308 35.7780051,39.3517744 C39.1506769,37.6089179 41.2461538,34.1670718 41.2461538,30.3692308 C41.2461538,26.7384205 39.3244564,23.4619179 36.2352308,21.6768821 L36.2352308,21.6768821 Z M39.4763026,14.7037692 C39.4105026,14.8488667 39.208041,15.1846154 38.7491282,15.1846154 L35.391641,15.1846154 L34.2258,15.1846154 L31.5263128,8.43589744 L34.9445385,8.43589744 L39.3463897,13.7656974 C39.6855128,14.1554359 39.5319795,14.5822923 39.4763026,14.7037692 L39.4763026,14.7037692 Z M16.1240513,15.1846154 L17.4737949,8.43589744 L20.1564103,8.43589744 L20.1564103,15.1846154 L16.1240513,15.1846154 L16.1240513,15.1846154 Z M12.2924667,8.43589744 L15.7528718,8.43589744 L14.4031282,15.1846154 L9.59297949,15.1846154 L12.2924667,8.43589744 L12.2924667,8.43589744 Z M21.8435897,8.43589744 L24.5262051,8.43589744 L25.8759487,15.1846154 L21.8435897,15.1846154 L21.8435897,8.43589744 L21.8435897,8.43589744 Z M27.5968718,15.1846154 L26.2471282,8.43589744 L29.7092205,8.43589744 L32.4087077,15.1846154 L27.5968718,15.1846154 L27.5968718,15.1846154 Z M34.4974359,1.68717949 L34.4974359,6.74871795 L30.2794872,6.74871795 L25.2179487,6.74871795 L21,6.74871795 L16.7820513,6.74871795 L11.7205128,6.74871795 L7.5025641,6.74871795 L7.5025641,1.68717949 L34.4974359,1.68717949 L34.4974359,1.68717949 Z M2.52369744,14.7037692 C2.46802051,14.5822923 2.31448718,14.1554359 2.67048205,13.7471385 L7.05546154,8.43589744 L10.4736872,8.43589744 L7.7742,15.1846154 L6.60835897,15.1846154 L3.25087179,15.1846154 C2.79195897,15.1846154 2.58949744,14.8488667 2.52369744,14.7037692 L2.52369744,14.7037692 Z M14.2512821,26.1512821 L14.2512821,38.8051282 L7.45194872,38.8051282 L7.45194872,16.8717949 L8.34615385,16.8717949 L15.0948718,16.8717949 L21,16.8717949 L26.9051282,16.8717949 L26.9388718,16.8717949 L33.6538462,16.8717949 L33.6875897,16.8717949 L34.5480513,16.8717949 L34.5480513,20.8467897 C34.4873128,20.8248564 34.4215128,20.8181077 34.3607744,20.7961744 C33.9491026,20.6527641 33.5273077,20.5414103 33.0970769,20.4553641 C32.9604154,20.4283692 32.825441,20.4013744 32.6870923,20.379441 C32.1741897,20.3001436 31.6562256,20.2461538 31.1230769,20.2461538 C30.654041,20.2461538 30.193441,20.2798974 29.7379026,20.3423231 C29.5843692,20.3625692 29.4375846,20.4047487 29.2874256,20.4317436 C28.9904821,20.4857333 28.6935385,20.5380359 28.4050308,20.6173333 C28.2261897,20.6662615 28.0574718,20.7371231 27.8820051,20.7961744 C27.6306154,20.8805333 27.3775385,20.9598308 27.1345846,21.0644359 C26.9523692,21.1420462 26.7802769,21.2399026 26.6031231,21.3276359 C26.3821026,21.4389897 26.1577077,21.5452821 25.9451231,21.6718205 C25.7662821,21.7781128 25.6009385,21.9012769 25.4288462,22.0176923 C25.2331333,22.1526667 25.0357333,22.2825795 24.8484564,22.4310513 C24.6814256,22.5643385 24.5262051,22.7111231 24.3659231,22.8562205 C24.1938308,23.0131282 24.0200513,23.1666615 23.8580821,23.3353795 C23.7062359,23.4922872 23.5678872,23.6610051 23.4278513,23.8297231 C23.2776923,24.0085641 23.1275333,24.1857179 22.9891846,24.3746821 C22.8592718,24.5518359 22.7428564,24.7391128 22.6230667,24.9263897 C22.5403949,25.0563026 22.4459128,25.1760923 22.3683026,25.3110667 L15.0948718,25.3110667 C14.6292103,25.3076923 14.2512821,25.6856205 14.2512821,26.1512821 L14.2512821,26.1512821 Z M15.9384615,26.9948718 L21.5955744,26.9948718 C21.2092103,28.0746667 21,29.2202615 21,30.3692308 C21,33.8262615 22.7361077,36.961041 25.5705692,38.8051282 L15.9384615,38.8051282 L15.9384615,26.9948718 L15.9384615,26.9948718 Z M34.9985282,37.8569333 C32.6297282,39.103759 29.7125949,39.1290667 27.2864308,37.8670564 C24.4485949,36.4329538 22.6871795,33.5596872 22.6871795,30.3692308 C22.6871795,29.0211744 23.0009949,27.7321692 23.6252513,26.5325846 C25.0593538,23.6947487 27.9326205,21.9333333 31.1230769,21.9333333 C32.5065641,21.9333333 33.8073795,22.2572718 35.0069641,22.9034615 C37.8144308,24.3392513 39.5589744,27.2007077 39.5589744,30.3692308 C39.5589744,33.5326923 37.8127436,36.4008974 34.9985282,37.8569333 L34.9985282,37.8569333 Z" id="Shape"></path>
                        <path d="M36.9151641,26.2930051 C36.5507333,26.0028103 36.020959,26.0635487 35.7290769,26.4246051 L30.1327026,33.4196513 L26.0058615,30.3253641 C25.6346821,30.0469795 25.1049077,30.1212154 24.8248359,30.4940821 C24.5447641,30.8669487 24.6206872,31.3950359 24.9935538,31.6751077 L29.7733333,35.2620513 C29.9251795,35.3750923 30.1023333,35.4307692 30.2778,35.4307692 C30.5258154,35.4307692 30.7704564,35.3227897 30.9374872,35.1135795 L37.0450769,27.4790923 C37.336959,27.1163487 37.2779077,26.5848872 36.9151641,26.2930051 L36.9151641,26.2930051 Z" id="Shape"></path>
                    </g>
                </g>
            </g>
        </g>
    </g>
</svg>