<?xml version="1.0" encoding="UTF-8"?>
<svg width="44px" height="44px" viewBox="0 0 44 44" version="1.1" xmlns="http://www.w3.org/2000/svg" xmlns:xlink="http://www.w3.org/1999/xlink">
    <!-- Generator: sketchtool 51.2 (57519) - http://www.bohemiancoding.com/sketch -->
    <title>D24C1330-3B76-4F62-B658-9E662D441B8E</title>
    <desc>Created with sketchtool.</desc>
    <defs></defs>
    <g id="Actual" stroke="none" stroke-width="1" fill="none" fill-rule="evenodd">
        <g id="01-01-01-01-dashboard" transform="translate(-726.000000, -1208.000000)" fill="#CCCCCC">
            <g id="Shape-Copy-7" transform="translate(704.000000, 1184.000000)">
                <g id="traveling-car-wheel" transform="translate(22.000000, 24.000000)">
                    <g id="icons">
                        <path d="M22,0 C9.86883333,0 0,9.86883333 0,22 C0,34.1311667 9.86883333,44 22,44 C34.1311667,44 44,34.1311667 44,22 C44,9.86883333 34.1311667,0 22,0 L22,0 Z M22,42.1666667 C10.8808333,42.1666667 1.83333333,33.1191667 1.83333333,22 C1.83333333,10.8808333 10.8808333,1.83333333 22,1.83333333 C33.1191667,1.83333333 42.1666667,10.8808333 42.1666667,22 C42.1666667,33.1191667 33.1191667,42.1666667 22,42.1666667 L22,42.1666667 Z" id="Shape"></path>
                        <path d="M22,7.33333333 C13.9131667,7.33333333 7.33333333,13.9131667 7.33333333,22 C7.33333333,30.0868333 13.9131667,36.6666667 22,36.6666667 C30.0868333,36.6666667 36.6666667,30.0868333 36.6666667,22 C36.6666667,13.9131667 30.0868333,7.33333333 22,7.33333333 L22,7.33333333 Z M22,34.8333333 C14.9233333,34.8333333 9.16666667,29.0748333 9.16666667,22 C9.16666667,14.9251667 14.9233333,9.16666667 22,9.16666667 C29.0766667,9.16666667 34.8333333,14.9251667 34.8333333,22 C34.8333333,29.0748333 29.0766667,34.8333333 22,34.8333333 L22,34.8333333 Z" id="Shape"></path>
                        <path d="M25.6666667,22 C25.6666667,19.9778333 24.0221667,18.3333333 22,18.3333333 C19.9778333,18.3333333 18.3333333,19.9778333 18.3333333,22 C18.3333333,24.0221667 19.9778333,25.6666667 22,25.6666667 C24.0221667,25.6666667 25.6666667,24.0221667 25.6666667,22 L25.6666667,22 Z M22,23.8333333 C20.9898333,23.8333333 20.1666667,23.012 20.1666667,22 C20.1666667,20.988 20.9898333,20.1666667 22,20.1666667 C23.0101667,20.1666667 23.8333333,20.988 23.8333333,22 C23.8333333,23.012 23.0101667,23.8333333 22,23.8333333 L22,23.8333333 Z" id="Shape"></path>
                        <path d="M27.0398333,12.023 C26.7483333,12.0688333 26.499,12.254 26.367,12.518 L23.7728333,17.7026667 C23.7673333,17.7136667 23.7691667,17.7265 23.7636667,17.7375 C23.7361667,17.798 23.727,17.8603333 23.7141667,17.9226667 C23.7031667,17.9776667 23.6848333,18.029 23.683,18.084 C23.6811667,18.1408333 23.6958333,18.1976667 23.705,18.2545 C23.7141667,18.3131667 23.7178333,18.3718333 23.738,18.4286667 C23.7563333,18.4781667 23.7893333,18.5221667 23.8168333,18.568 C23.8498333,18.6248333 23.8791667,18.6816667 23.925,18.7311667 C23.9341667,18.7403333 23.936,18.7513333 23.9451667,18.7605 L25.2413333,20.0566667 C25.278,20.0933333 25.3238333,20.1098333 25.3641667,20.1373333 C25.399,20.163 25.4301667,20.1868333 25.4686667,20.207 C25.6025,20.2766667 25.7436667,20.3243333 25.8903333,20.3243333 L25.8903333,20.3243333 L25.8903333,20.3243333 C25.8921667,20.3243333 25.8921667,20.3225 25.894,20.3225 C26.0223333,20.3225 26.147,20.2895 26.2661667,20.2345 C26.2771667,20.229 26.2881667,20.2326667 26.2973333,20.2271667 L31.4838333,17.6348333 C31.7478333,17.5028333 31.9311667,17.2516667 31.9788333,16.962 C32.0265,16.6723333 31.9311667,16.3753333 31.7221667,16.1663333 L27.8336667,12.2778333 C27.6265,12.0706667 27.3368333,11.968 27.0398333,12.023 L27.0398333,12.023 Z M26.07,18.293 L25.707,17.93 L27.4358333,14.4723333 L29.5258333,16.5641667 L26.07,18.293 L26.07,18.293 Z" id="Shape"></path>
                        <path d="M18.7586667,23.9451667 C18.4781667,23.6683333 18.0546667,23.6005 17.7008333,23.7728333 L12.5143333,26.3651667 C12.2503333,26.4971667 12.067,26.7483333 12.0193333,27.038 C11.9716667,27.3276667 12.067,27.6246667 12.276,27.8336667 L16.1645,31.7221667 C16.3386667,31.8963333 16.5715,31.9898333 16.8135,31.9898333 C16.8611667,31.9898333 16.9106667,31.9861667 16.9601667,31.977 C17.2516667,31.9311667 17.501,31.746 17.633,31.482 L20.2271667,26.2973333 C20.4031667,25.9453333 20.3353333,25.5181667 20.0548333,25.2395 L18.7586667,23.9451667 L18.7586667,23.9451667 Z M16.5641667,29.5258333 L14.4741667,27.434 L17.9318333,25.707 L18.293,26.0681667 L16.5641667,29.5258333 L16.5641667,29.5258333 Z" id="Shape"></path>
                        <path d="M31.4838333,26.3651667 L26.2973333,23.7728333 C25.9435,23.5968333 25.52,23.6646667 25.2395,23.9451667 L23.9433333,25.2413333 C23.6646667,25.52 23.595,25.9471667 23.771,26.2991667 L26.3651667,31.4838333 C26.4971667,31.7478333 26.7465,31.9311667 27.038,31.9788333 C27.0875,31.988 27.137,31.9916667 27.1846667,31.9916667 C27.4248333,31.9916667 27.6595,31.8963333 27.8336667,31.724 L31.7221667,27.8355 C31.9311667,27.6283333 32.0265,27.3313333 31.9788333,27.0398333 C31.9311667,26.7483333 31.7478333,26.4971667 31.4838333,26.3651667 L31.4838333,26.3651667 Z M27.4358333,29.5258333 L25.707,26.0681667 L26.0681667,25.707 L29.5258333,27.434 L27.4358333,29.5258333 L27.4358333,29.5258333 Z" id="Shape"></path>
                        <path d="M12.5161667,17.6348333 L17.7026667,20.2271667 C17.8328333,20.2913333 17.9721667,20.3243333 18.1133333,20.3243333 C18.3498333,20.3243333 18.5845,20.2308333 18.7623333,20.0566667 L20.0585,18.7605 C20.3371667,18.4818333 20.4068333,18.0546667 20.2308333,17.7026667 L17.6348333,12.5161667 C17.5028333,12.254 17.2516667,12.0688333 16.9601667,12.023 C16.665,11.9643333 16.3735,12.0688333 16.1663333,12.2778333 L12.2778333,16.1663333 C12.0688333,16.3735 11.9735,16.6705 12.0211667,16.962 C12.0688333,17.2535 12.2521667,17.5028333 12.5161667,17.6348333 L12.5161667,17.6348333 Z M16.5641667,14.4741667 L18.293,17.93 L17.93,18.293 L14.4741667,16.5641667 L16.5641667,14.4741667 L16.5641667,14.4741667 Z" id="Shape"></path>
                    </g>
                </g>
            </g>
        </g>
    </g>
</svg>