<?xml version="1.0" encoding="UTF-8"?>
<svg width="47px" height="46px" viewBox="0 0 47 46" version="1.1" xmlns="http://www.w3.org/2000/svg" xmlns:xlink="http://www.w3.org/1999/xlink">
    <!-- Generator: sketchtool 51.2 (57519) - http://www.bohemiancoding.com/sketch -->
    <title>78151BA5-B197-4133-B540-93F0E93988EE</title>
    <desc>Created with sketchtool.</desc>
    <defs></defs>
    <g id="Actual" stroke="none" stroke-width="1" fill="none" fill-rule="evenodd">
        <g id="01-01-01-01-dashboard" transform="translate(-77.000000, -1060.000000)" fill="#E40000">
            <g id="Shape" transform="translate(56.000000, 1040.000000)">
                <g id="Circles" transform="translate(21.000000, 20.000000)">
                    <path d="M36.5033333,18.0205833 C36.95375,16.6634583 37.2083333,15.21625 37.2083333,13.7083333 C37.2083333,6.14916667 31.0591667,0 23.5,0 C15.9408333,0 9.79166667,6.14916667 9.79166667,13.7083333 C9.79166667,15.21625 10.04625,16.6634583 10.4966667,18.0205833 C4.48458333,19.4717083 0,24.8825833 0,31.3333333 C0,38.8925 6.14916667,45.0416667 13.7083333,45.0416667 C17.54275,45.0416667 21.009,43.4554167 23.5,40.9095833 C25.991,43.4554167 29.45725,45.0416667 33.2916667,45.0416667 C40.8508333,45.0416667 47,38.8925 47,31.3333333 C47,24.8825833 42.5154167,19.4717083 36.5033333,18.0205833 L36.5033333,18.0205833 Z M11.75,13.7083333 C11.75,7.22820833 17.019875,1.95833333 23.5,1.95833333 C29.980125,1.95833333 35.25,7.22820833 35.25,13.7083333 C35.25,15.1065833 34.9915,16.4421667 34.5410833,17.6876667 C34.1298333,17.6504583 33.7127083,17.625 33.2916667,17.625 C29.45725,17.625 25.991,19.21125 23.5,21.7570833 C21.009,19.21125 17.54275,17.625 13.7083333,17.625 C13.2872917,17.625 12.8701667,17.6504583 12.4589167,17.6876667 C12.0085,16.4421667 11.75,15.1065833 11.75,13.7083333 L11.75,13.7083333 Z M25.4583333,31.3333333 C25.4583333,33.728375 24.7357083,35.955 23.5,37.8154167 C22.2642917,35.955 21.5416667,33.728375 21.5416667,31.3333333 C21.5416667,29.9350833 21.8001667,28.5995 22.2505833,27.354 C22.6618333,27.3912083 23.0789583,27.4166667 23.5,27.4166667 C23.9210417,27.4166667 24.3381667,27.3912083 24.7494167,27.354 C25.1998333,28.5995 25.4583333,29.9350833 25.4583333,31.3333333 L25.4583333,31.3333333 Z M23.5,25.4583333 C23.3785833,25.4583333 23.2630417,25.444625 23.141625,25.4407083 C23.2571667,25.2429167 23.3727083,25.0431667 23.5,24.8532083 C23.6272917,25.0431667 23.7428333,25.2429167 23.858375,25.4407083 C23.7369583,25.444625 23.6214167,25.4583333 23.5,25.4583333 L23.5,25.4583333 Z M21.050125,25.197875 C17.766,24.49875 14.993,22.419 13.3499583,19.6009583 C13.471375,19.5970417 13.5869167,19.5833333 13.7083333,19.5833333 C17.0649167,19.5833333 20.0885833,21.0050833 22.231,23.2689167 C21.7864583,23.876 21.390875,24.5202917 21.050125,25.197875 L21.050125,25.197875 Z M24.769,23.2689167 C26.9114167,21.0050833 29.9350833,19.5833333 33.2916667,19.5833333 C33.4130833,19.5833333 33.528625,19.5970417 33.6500417,19.6009583 C32.007,22.419 29.234,24.4967917 25.949875,25.197875 C25.609125,24.5202917 25.2135417,23.876 24.769,23.2689167 L24.769,23.2689167 Z M13.7083333,43.0833333 C7.22820833,43.0833333 1.95833333,37.8134583 1.95833333,31.3333333 C1.95833333,25.6933333 5.951375,20.97375 11.2584583,19.8437917 C13.048375,23.3981667 16.3325,26.0654167 20.2883333,27.0210833 C19.8379167,28.3782083 19.5833333,29.8254167 19.5833333,31.3333333 C19.5833333,34.3491667 20.57425,37.1319583 22.231,39.39775 C20.0885833,41.6615833 17.0649167,43.0833333 13.7083333,43.0833333 L13.7083333,43.0833333 Z M33.2916667,43.0833333 C29.9350833,43.0833333 26.9114167,41.6615833 24.769,39.39775 C26.42575,37.1319583 27.4166667,34.3491667 27.4166667,31.3333333 C27.4166667,29.8254167 27.1620833,28.3782083 26.7116667,27.0210833 C30.6675,26.067375 33.951625,23.400125 35.7415417,19.8437917 C41.048625,20.97375 45.0416667,25.6933333 45.0416667,31.3333333 C45.0416667,37.8134583 39.7717917,43.0833333 33.2916667,43.0833333 L33.2916667,43.0833333 Z" id="Shape"></path>
                </g>
            </g>
        </g>
    </g>
</svg>