<?xml version="1.0" encoding="UTF-8"?>
<svg width="44px" height="41px" viewBox="0 0 44 41" version="1.1" xmlns="http://www.w3.org/2000/svg" xmlns:xlink="http://www.w3.org/1999/xlink">
    <!-- Generator: sketchtool 51.2 (57519) - http://www.bohemiancoding.com/sketch -->
    <title>7C0FB136-1755-4459-9F06-BAC0A098346C</title>
    <desc>Created with sketchtool.</desc>
    <defs></defs>
    <g id="Actual" stroke="none" stroke-width="1" fill="none" fill-rule="evenodd">
        <g id="01-01-01-01-dashboard" transform="translate(-726.000000, -1064.000000)" fill="#E40000">
            <g id="Shape-Copy-3" transform="translate(704.000000, 1040.000000)">
                <g id="ecommerce-credit-card-accepted" transform="translate(22.000000, 24.000000)">
                    <g id="icons">
                        <path d="M17.4166667,18.3333333 L13.75,18.3333333 C13.244,18.3333333 12.8333333,18.744 12.8333333,19.25 C12.8333333,19.756 13.244,20.1666667 13.75,20.1666667 L17.4166667,20.1666667 C17.9226667,20.1666667 18.3333333,19.756 18.3333333,19.25 C18.3333333,18.744 17.9226667,18.3333333 17.4166667,18.3333333 L17.4166667,18.3333333 Z" id="Shape"></path>
                        <path d="M10.0833333,18.3333333 L6.41666667,18.3333333 C5.91066667,18.3333333 5.5,18.744 5.5,19.25 C5.5,19.756 5.91066667,20.1666667 6.41666667,20.1666667 L10.0833333,20.1666667 C10.5893333,20.1666667 11,19.756 11,19.25 C11,18.744 10.5893333,18.3333333 10.0833333,18.3333333 L10.0833333,18.3333333 Z" id="Shape"></path>
                        <path d="M40.3333333,19.8385 L40.3333333,2.75 C40.3333333,1.23383333 39.0995,0 37.5833333,0 L2.75,0 C1.23383333,0 0,1.23383333 0,2.75 L0,22.9166667 C0,24.4328333 1.23383333,25.6666667 2.75,25.6666667 L20.5003333,25.6666667 C20.2895,26.5503333 20.1666667,27.4688333 20.1666667,28.4166667 C20.1666667,34.9873333 25.5126667,40.3333333 32.0833333,40.3333333 C38.654,40.3333333 44,34.9873333 44,28.4166667 C44,25.047 42.5883333,22.0073333 40.3333333,19.8385 L40.3333333,19.8385 Z M1.83333333,7.33333333 L38.5,7.33333333 L38.5,11 L1.83333333,11 L1.83333333,7.33333333 L1.83333333,7.33333333 Z M2.75,1.83333333 L37.5833333,1.83333333 C38.0893333,1.83333333 38.5,2.24583333 38.5,2.75 L38.5,5.5 L1.83333333,5.5 L1.83333333,2.75 C1.83333333,2.24583333 2.244,1.83333333 2.75,1.83333333 L2.75,1.83333333 Z M2.75,23.8333333 C2.244,23.8333333 1.83333333,23.4208333 1.83333333,22.9166667 L1.83333333,12.8333333 L38.5,12.8333333 L38.5,18.392 C36.6446667,17.2003333 34.4465,16.5 32.0833333,16.5 C29.7605,16.5 27.5971667,17.1783333 25.762,18.3333333 L21.0833333,18.3333333 C20.5773333,18.3333333 20.1666667,18.744 20.1666667,19.25 C20.1666667,19.756 20.5773333,20.1666667 21.0833333,20.1666667 L23.5051667,20.1666667 C22.4895,21.2226667 21.6608333,22.4601667 21.087,23.8333333 L2.75,23.8333333 L2.75,23.8333333 Z M32.0833333,38.5 C26.5228333,38.5 22,33.9753333 22,28.4166667 C22,27.2561667 22.2071667,26.147 22.5683333,25.1075 C22.5683333,25.1056667 22.5683333,25.1056667 22.5701667,25.1038333 C23.9451667,21.1695 27.6851667,18.3333333 32.0833333,18.3333333 C37.6438333,18.3333333 42.1666667,22.858 42.1666667,28.4166667 C42.1666667,33.9753333 37.6438333,38.5 32.0833333,38.5 L32.0833333,38.5 Z" id="Shape"></path>
                        <path d="M36.8261667,24.2311667 L31.0915,32.5966667 L27.1461667,29.5276667 C26.7465,29.216 26.1708333,29.2911667 25.8591667,29.689 C25.5475,30.0886667 25.6208333,30.6643333 26.0186667,30.9741667 L30.7321667,34.6408333 C30.8971667,34.7673333 31.0951667,34.8333333 31.2968333,34.8333333 C31.3426667,34.8333333 31.3903333,34.8296667 31.438,34.8223333 C31.6873333,34.7838333 31.911,34.6426667 32.054,34.4355 L38.3405,25.2688333 C38.6265,24.849 38.5201667,24.2806667 38.1021667,23.9946667 C37.6841667,23.7068333 37.114,23.815 36.8261667,24.2311667 L36.8261667,24.2311667 Z" id="Shape"></path>
                    </g>
                </g>
            </g>
        </g>
    </g>
</svg>