<?xml version="1.0" encoding="UTF-8"?>
<svg width="44px" height="45px" viewBox="0 0 44 45" version="1.1" xmlns="http://www.w3.org/2000/svg" xmlns:xlink="http://www.w3.org/1999/xlink">
    <!-- Generator: sketchtool 51.2 (57519) - http://www.bohemiancoding.com/sketch -->
    <title>FF674C3E-D5A9-4B55-8C0E-785988B67D91</title>
    <desc>Created with sketchtool.</desc>
    <defs></defs>
    <g id="Actual" stroke="none" stroke-width="1" fill="none" fill-rule="evenodd">
        <g id="01-01-01-01-dashboard" transform="translate(-77.000000, -1205.000000)" fill="#E40000">
            <g id="Shape-Copy-4" transform="translate(56.000000, 1184.000000)">
                <g id="ecommerce-accepted-cards" transform="translate(21.000000, 21.000000)">
                    <g id="icons">
                        <path d="M43.0833333,21 L8.25,21 C7.744,21 7.33333333,21.4106667 7.33333333,21.9166667 L7.33333333,43.9166667 C7.33333333,44.4226667 7.744,44.8333333 8.25,44.8333333 L43.0833333,44.8333333 C43.5893333,44.8333333 44,44.4226667 44,43.9166667 L44,21.9166667 C44,21.4106667 43.5893333,21 43.0833333,21 L43.0833333,21 Z M42.1666667,43 L9.16666667,43 L9.16666667,22.8333333 L42.1666667,22.8333333 L42.1666667,43 L42.1666667,43 Z" id="Shape"></path>
                        <path d="M37.5833333,37.5 L33.9166667,37.5 C33.4106667,37.5 33,37.9106667 33,38.4166667 C33,38.9226667 33.4106667,39.3333333 33.9166667,39.3333333 L37.5833333,39.3333333 C38.0893333,39.3333333 38.5,38.9226667 38.5,38.4166667 C38.5,37.9106667 38.0893333,37.5 37.5833333,37.5 L37.5833333,37.5 Z" id="Shape"></path>
                        <path d="M26.5833333,39.3333333 L30.25,39.3333333 C30.756,39.3333333 31.1666667,38.9226667 31.1666667,38.4166667 C31.1666667,37.9106667 30.756,37.5 30.25,37.5 L26.5833333,37.5 C26.0773333,37.5 25.6666667,37.9106667 25.6666667,38.4166667 C25.6666667,38.9226667 26.0773333,39.3333333 26.5833333,39.3333333 L26.5833333,39.3333333 Z" id="Shape"></path>
                        <path d="M19.25,39.3333333 L22.9166667,39.3333333 C23.4226667,39.3333333 23.8333333,38.9226667 23.8333333,38.4166667 C23.8333333,37.9106667 23.4226667,37.5 22.9166667,37.5 L19.25,37.5 C18.744,37.5 18.3333333,37.9106667 18.3333333,38.4166667 C18.3333333,38.9226667 18.744,39.3333333 19.25,39.3333333 L19.25,39.3333333 Z" id="Shape"></path>
                        <path d="M31.1666667,32 C31.8376667,32 32.4591667,31.8056667 33,31.4903333 C33.5408333,31.8056667 34.1623333,32 34.8333333,32 C36.8555,32 38.5,30.3555 38.5,28.3333333 C38.5,26.3111667 36.8555,24.6666667 34.8333333,24.6666667 C34.1623333,24.6666667 33.5408333,24.861 33,25.1763333 C32.4591667,24.861 31.8376667,24.6666667 31.1666667,24.6666667 C29.1445,24.6666667 27.5,26.3111667 27.5,28.3333333 C27.5,30.3555 29.1445,32 31.1666667,32 L31.1666667,32 Z M36.6666667,28.3333333 C36.6666667,29.3453333 35.8435,30.1666667 34.8333333,30.1666667 C34.6701667,30.1666667 34.5235,30.1135 34.3731667,30.0731667 C34.6573333,29.5525 34.8333333,28.9658333 34.8333333,28.3333333 C34.8333333,27.7008333 34.6573333,27.1141667 34.3731667,26.5935 C34.5235,26.5531667 34.6701667,26.5 34.8333333,26.5 C35.8435,26.5 36.6666667,27.3213333 36.6666667,28.3333333 L36.6666667,28.3333333 Z M31.1666667,26.5 C31.3298333,26.5 31.4765,26.5531667 31.6268333,26.5935 C31.3426667,27.1141667 31.1666667,27.7008333 31.1666667,28.3333333 C31.1666667,28.9658333 31.3426667,29.5525 31.6268333,30.0731667 C31.4765,30.1135 31.3298333,30.1666667 31.1666667,30.1666667 C30.1565,30.1666667 29.3333333,29.3453333 29.3333333,28.3333333 C29.3333333,27.3213333 30.1565,26.5 31.1666667,26.5 L31.1666667,26.5 Z" id="Shape"></path>
                        <path d="M26.0993333,8.2675 C25.4998333,8.5975 25.025,9.0815 24.6913333,9.65533333 C24.046,9.63516667 23.397,9.758 22.8158333,10.077 C21.9395,10.561 21.307,11.353 21.0356667,12.3118333 C20.7661667,13.2615 20.8853333,14.2606667 21.3711667,15.1205 C22.0311667,16.2901667 23.2815,17.0161667 24.6345,17.0161667 C25.267,17.0161667 25.894,16.853 26.4476667,16.5468333 C27.0343333,16.2223333 27.4981667,15.7511667 27.83,15.1938333 C27.8593333,15.1938333 27.885,15.2048333 27.9143333,15.2048333 C28.5468333,15.2048333 29.1738333,15.0416667 29.7275,14.7355 C30.6038333,14.2515 31.2345,13.4595 31.5076667,12.5025 C31.7771667,11.551 31.658,10.5536667 31.1721667,9.69016667 C30.2078333,7.97783333 27.8391667,7.305 26.0993333,8.2675 L26.0993333,8.2675 Z M26.2533333,12.4071667 C26.2331667,12.3723333 26.2331667,12.332 26.2166667,12.2953333 C26.2423333,12.332 26.2753333,12.3613333 26.2973333,12.4016667 C26.312,12.4291667 26.312,12.4603333 26.3266667,12.4896667 C26.3046667,12.4585 26.2716667,12.4401667 26.2533333,12.4071667 L26.2533333,12.4071667 Z M25.564,14.9426667 C24.6693333,15.4321667 23.463,15.0875 22.9698333,14.2166667 C22.726,13.7858333 22.6655,13.2853333 22.8011667,12.8086667 C22.9386667,12.3246667 23.2595,11.925 23.7031667,11.6793333 C23.8571667,11.595 24.024,11.5363333 24.1945,11.496 C24.1926667,12.123 24.3375,12.7445 24.6546667,13.3073333 C24.9663333,13.8591667 25.4155,14.3028333 25.938,14.6273333 C25.8206667,14.741 25.7106667,14.862 25.564,14.9426667 L25.564,14.9426667 Z M29.7476667,12.0038333 C29.6101667,12.4878333 29.2893333,12.8875 28.8456667,13.1331667 C28.6916667,13.2175 28.5211667,13.245 28.3525,13.2816667 C28.3488333,12.6656667 28.204,12.0551667 27.8923333,11.5015 C27.5806667,10.9515 27.1168333,10.5225 26.5833333,10.2071667 C26.7061667,10.0843333 26.8271667,9.95783333 26.9848333,9.87166667 C27.269,9.71583333 27.5898333,9.6315 27.9125,9.6315 C28.6036667,9.6315 29.2435,10 29.5771667,10.5921667 C29.8228333,11.0266667 29.8833333,11.5271667 29.7476667,12.0038333 L29.7476667,12.0038333 Z" id="Shape"></path>
                        <path d="M41.1271667,19.6176667 C41.3746667,20.0558333 41.9338333,20.2135 42.3756667,19.9641667 C42.8175,19.7148333 42.9733333,19.1575 42.724,18.7138333 L32.901,1.29716667 C32.6553333,0.862666667 32.098,0.701333333 31.6598333,0.947 L0.474833333,18.1436667 C0.260333333,18.261 0.102666667,18.4608333 0.0348333333,18.6955 C-0.033,18.932 -0.00183333333,19.185 0.117333333,19.3976667 L4.70066667,27.523 C4.86933333,27.82 5.181,27.9886667 5.5,27.9886667 C5.65216667,27.9886667 5.80616667,27.9501667 5.94916667,27.8713333 C6.391,27.622 6.54683333,27.0646667 6.2975,26.621 L2.16883333,19.3041667 L31.7478333,2.993 L41.1271667,19.6176667 L41.1271667,19.6176667 Z" id="Shape"></path>
                    </g>
                </g>
            </g>
        </g>
    </g>
</svg>