<?xml version="1.0" encoding="UTF-8"?>
<svg width="92px" height="37px" viewBox="0 0 92 37" version="1.1" xmlns="http://www.w3.org/2000/svg" xmlns:xlink="http://www.w3.org/1999/xlink">
    <!-- Generator: sketchtool 51.2 (57519) - http://www.bohemiancoding.com/sketch -->
    <title>83DAEFFB-F33B-464E-A708-28CAD49717E2</title>
    <desc>Created with sketchtool.</desc>
    <defs></defs>
    <g id="Actual" stroke="none" stroke-width="1" fill="none" fill-rule="evenodd">
        <g id="01-02-01-01-dashboard-pretenter" transform="translate(-726.000000, -1282.000000)" fill="#E40000">
            <g id="Shape-Copy-11" transform="translate(704.000000, 1262.000000)">
                <g id="ecr-logo" transform="translate(22.000000, 20.000000)">
                    <path d="M45.9676254,0 C36.353675,0 28.5599151,7.83651025 28.5599151,17.5033811 C28.5599151,21.0065499 29.5840613,24.2688328 31.3469025,27.005445 L32.1773563,27.005445 C30.2766919,24.2292122 29.2506958,20.9460959 29.2506958,17.5033811 C29.2506958,13.0136033 30.9894873,8.79261323 34.1470248,5.6179421 C37.3045622,2.44308494 41.5023406,0.694569756 45.9676254,0.694569756 C50.4329103,0.694569756 54.6308737,2.44308494 57.7884111,5.6179421 C60.9457636,8.79261323 62.6845551,13.0136033 62.6845551,17.5033811 C62.6845551,20.9460959 61.6585589,24.2292122 59.7580796,27.005445 L60.5883484,27.005445 C62.3511896,24.2688328 63.3755208,21.0065499 63.3755208,17.5033811 C63.3755208,7.83651025 55.5817609,0 45.9676254,0 Z M30.5863777,17.5264466 C30.5863777,21.0984399 31.7918215,24.3852764 33.8118093,27.005445 L35.3039992,27.005445 C32.9993002,24.3858345 31.7376172,21.054355 31.7376172,17.5264466 C31.7376172,13.6985004 33.2201872,10.0995353 35.912271,7.39268501 C38.6041697,4.68583469 42.1835014,3.19513249 45.9907501,3.19513249 C49.7978138,3.19513249 53.3771456,4.68583469 56.0690443,7.39268501 C58.761313,10.0995353 60.243883,13.6985004 60.243883,17.5264466 C60.243883,21.054355 58.982015,24.3858345 56.6775011,27.005445 L58.169321,27.005445 C60.1896787,24.3852764 61.3951225,21.0984399 61.3951225,17.5264466 C61.3951225,8.97211506 54.4986005,2.03757823 45.9907501,2.03757823 C37.4828998,2.03757823 30.5863777,8.97211506 30.5863777,17.5264466 Z M32.7045992,17.4801295 C32.7045992,21.2146976 34.2360086,24.5878438 36.6990654,27.005445 L39.6016762,27.005445 C38.9915545,26.5928699 38.4165822,26.1185386 37.8850844,25.5839394 C35.7322684,23.4195008 34.5466194,20.5413332 34.5466194,17.4801295 C34.5466194,14.4189259 35.7322684,11.5409443 37.8850844,9.37631969 C40.0379004,7.21169509 42.9001818,6.01972856 45.9445007,6.01972856 C48.9893747,6.01972856 51.8514711,7.21169509 54.0042871,9.37631969 C56.1571031,11.5409443 57.3425671,14.4189259 57.3425671,17.4801295 C57.3425671,20.5413332 56.1571031,23.4195008 54.0042871,25.5839394 C53.4727893,26.1185386 52.897632,26.5928699 52.2878803,27.005445 L55.1901211,27.005445 C57.6533629,24.5878438 59.1845873,21.2146976 59.1845873,17.4801295 C59.1845873,10.1278092 53.2568972,4.16760455 45.9445007,4.16760455 C38.6322893,4.16760455 32.7045992,10.1278092 32.7045992,17.4801295 Z M36.1592426,17.4801295 C36.1592426,22.905921 40.5490485,27.3199918 45.9448707,27.3199918 C48.4430771,27.3199918 50.7257613,26.3735614 52.456598,24.818871 C53.1457137,24.1998222 53.3925004,23.9295464 53.940648,23.1389943 C53.9732075,23.0917472 54.0695912,22.9418213 54.0991908,22.8999686 C54.3659572,22.5245959 54.2482988,21.9247063 53.5044239,21.9247063 L53.0086305,21.9247063 C51.7832071,21.9247063 50.4832296,21.9338209 50.4832296,21.9338209 C49.336985,23.1149988 47.7374966,23.8495611 45.9705854,23.8495611 C42.4918923,23.8495611 39.6619854,21.0037597 39.6619854,17.5057992 C39.6619854,14.0080248 42.4918923,11.1622233 45.9705854,11.1622233 C48.8324968,11.1622233 51.2546692,13.0883802 52.0240738,15.7193375 L48.302109,15.7193375 C47.7672812,14.9961219 46.9109277,14.527371 45.9457957,14.527371 C44.3241076,14.527371 43.0100703,15.8491741 43.0100703,17.4795715 C43.0100703,19.1097829 44.3241076,20.431586 45.9457957,20.431586 C46.9331274,20.431586 47.8059457,19.9408857 48.3383685,19.1892101 L52.0533034,19.1892101 C52.0533034,19.1892101 52.1091727,19.1973947 53.4648344,19.1973947 C54.6171839,19.1973947 54.9483294,19.1015984 55.2693001,18.7794251 C55.6331902,18.413725 55.7304988,17.9135381 55.7304988,17.4801295 C55.7304988,12.0541521 51.340693,7.6398953 45.9448707,7.6398953 C40.5490485,7.6398953 36.1592426,12.0541521 36.1592426,17.4801295 Z M62.2901404,28.8025094 C62.1412174,28.8538488 62.0104242,28.9338341 61.8981307,29.0432093 C61.7852822,29.1525845 61.6946335,29.2946979 61.6256294,29.4695494 C61.5566253,29.6445869 61.5220308,29.8523626 61.5220308,30.0928764 L61.5220308,36.1615262 L63.5699532,36.1615262 L63.5699532,31.8642711 L68.035978,35.8880882 C68.2102456,36.0558713 68.3682335,36.1632003 68.5097566,36.2106335 C68.6514647,36.2578806 68.7948378,36.2816901 68.9402458,36.2816901 C69.0997137,36.2816901 69.2560365,36.2560204 69.4086595,36.2050531 C69.5609124,36.1540857 69.6935557,36.0722403 69.8062191,35.9591449 C69.9186976,35.8460494 70.0093464,35.702262 70.0783505,35.5274105 C70.1473545,35.3521869 70.1819491,35.1445972 70.1819491,34.9040834 L70.1819491,28.8462223 L68.1232968,28.8462223 L68.1232968,33.1434774 L63.657087,29.1196603 C63.4756045,28.9520633 63.3141016,28.8445482 63.1723935,28.7971151 C63.0306855,28.749868 62.8910123,28.7260584 62.7531892,28.7260584 C62.5931664,28.7260584 62.4390634,28.7517281 62.2901404,28.8025094 Z M75.6719351,28.8462223 C75.0397986,28.8462223 74.4552065,28.931974 73.9179737,29.1032912 C73.380556,29.2747945 72.9176922,29.5188426 72.5291974,29.8359935 C72.1407027,30.1529584 71.8356418,30.5320514 71.6141998,30.9730864 C71.3925728,31.4143075 71.2819442,31.9009155 71.2819442,32.4329106 C71.2819442,32.9649056 71.3925728,33.4589542 71.6141998,33.9144982 C71.8356418,34.3700422 72.1407027,34.7636441 72.5291974,35.09549 C72.9176922,35.4271498 73.380556,35.687753 73.9179737,35.8772995 C74.4552065,36.066846 75.0397986,36.1615262 75.6719351,36.1615262 L79.3317407,36.1615262 L80.7804562,34.2805703 L75.6719351,34.2805703 C75.3666892,34.2805703 75.083643,34.2387176 74.8222415,34.154826 C74.56084,34.0711205 74.3338481,33.9526307 74.1412657,33.7997286 C73.9488683,33.6464545 73.7997603,33.4624884 73.6946817,33.2474583 C73.5894181,33.0326141 73.5366939,32.7937744 73.5366939,32.5311251 C73.5366939,32.2688478 73.5912681,32.0283339 73.7000467,31.8095835 C73.8091952,31.5908331 73.9579332,31.4033328 74.1468156,31.2465244 C74.3355131,31.0897161 74.56084,30.9676921 74.8222415,30.8802663 C75.083643,30.7928406 75.3666892,30.7489417 75.6719351,30.7489417 L79.3317407,30.7489417 L80.7804562,28.8462223 L75.6719351,28.8462223 Z M52.3176648,28.8462223 L52.3176648,36.1615262 L59.3327703,36.1615262 L60.7814858,34.2805703 L54.5836993,34.2805703 L54.5836993,33.2857768 L59.060454,33.2857768 L60.3567315,31.6235713 L54.5836993,31.6235713 L54.5836993,30.7489417 L59.3002107,30.7489417 L60.7596561,28.8462223 L52.3176648,28.8462223 Z M42.6232405,28.8462223 L41.1526953,30.7489417 L47.4923749,30.7489417 C47.8843846,30.7489417 48.1894455,30.8198123 48.4073726,30.9621117 C48.6251146,31.1044111 48.7340781,31.3173951 48.7340781,31.6018078 C48.7340781,31.8570167 48.6143848,32.0573519 48.374628,32.2031855 C48.1350562,32.3490191 47.8409102,32.4219359 47.4923749,32.4219359 L41.1526953,32.4219359 L41.1526953,36.1615262 L43.4074449,36.1615262 L43.4074449,34.2258827 L46.8715233,34.2258827 L48.4946914,36.1615262 L51.5118157,36.1615262 L50.1720638,34.7400206 C49.9176922,34.4848118 49.7143799,34.2844766 49.561942,34.138643 C49.409319,33.9928094 49.2713109,33.8726454 49.1479176,33.7775932 C49.4457636,33.7193713 49.71253,33.6191107 49.9485868,33.4769974 C50.1846436,33.334884 50.3842559,33.1618926 50.5477937,32.9576512 C50.7109615,32.7535957 50.8363898,32.5240566 50.9235236,32.2688478 C51.0106575,32.013639 51.0543169,31.7439212 51.0543169,31.4595085 C51.0543169,30.9347679 50.9361035,30.5048936 50.7002316,30.1695135 C50.4641748,29.8341334 50.1646639,29.5679499 49.8016988,29.3711489 C49.4383637,29.1743479 49.0352541,29.0378149 48.5925551,28.9611779 C48.149486,28.8847268 47.7210318,28.8462223 47.3070074,28.8462223 L42.6232405,28.8462223 Z M31.4799157,28.8462223 L30.0093705,30.7489417 L36.3490501,30.7489417 C36.7412448,30.7489417 37.0461207,30.8198123 37.2640477,30.9621117 C37.4819748,31.1044111 37.5909383,31.3173951 37.5909383,31.6018078 C37.5909383,31.8570167 37.47106,32.0573519 37.2313032,32.2031855 C36.9917314,32.3490191 36.6975854,32.4219359 36.3490501,32.4219359 L30.0093705,32.4219359 L30.0093705,36.1615262 L32.2643051,36.1615262 L32.2643051,34.2258827 L35.7280134,34.2258827 L37.3511816,36.1615262 L40.3684909,36.1615262 L39.028739,34.7400206 C38.7745524,34.4848118 38.5712401,34.2844766 38.4186172,34.138643 C38.2661792,33.9928094 38.1281711,33.8726454 38.0047778,33.7775932 C38.3024387,33.7193713 38.5693902,33.6191107 38.805262,33.4769974 C39.0411338,33.334884 39.2411161,33.1618926 39.4044689,32.9576512 C39.5678217,32.7535957 39.69325,32.5240566 39.7803838,32.2688478 C39.8673327,32.013639 39.9109921,31.7439212 39.9109921,31.4595085 C39.9109921,30.9347679 39.7929637,30.5048936 39.5570918,30.1695135 C39.32085,29.8341334 39.0213391,29.5679499 38.658189,29.3711489 C38.2952238,29.1743479 37.8921143,29.0378149 37.4492302,28.9611779 C37.0063462,28.8847268 36.577707,28.8462223 36.1638676,28.8462223 L31.4799157,28.8462223 Z M26.4910879,28.8462223 L26.4910879,32.9686259 C26.4910879,33.2238347 26.4529785,33.4425851 26.3767595,33.6246911 C26.3005405,33.8067971 26.1752972,33.956351 26.0010296,34.0729806 C25.8265769,34.1896103 25.59422,34.2735018 25.3037739,34.3244692 C25.0133279,34.3754366 24.6501778,34.4009202 24.2145086,34.4009202 C23.6336165,34.4009202 23.1615028,34.3772967 22.7983527,34.3298636 C22.4352026,34.2826164 22.1538214,34.2024452 21.9542091,34.0893497 C21.7544118,33.9764403 21.6182536,33.8287465 21.5457346,33.6464545 C21.4730306,33.4645346 21.4369561,33.2383437 21.4369561,32.9686259 L21.4369561,28.8462223 L19.1929363,28.8462223 L19.1929363,32.9686259 C19.1929363,33.5225704 19.289135,34.0056442 19.4815324,34.4174753 C19.6739298,34.8293065 19.9754758,35.1738012 20.3856152,35.4505874 C20.7959397,35.7279317 21.3170777,35.9355213 21.9486592,36.0739145 C22.5806107,36.2123076 23.3355855,36.2816901 24.2145086,36.2816901 C27.2427328,36.2816901 28.7567524,35.1773354 28.7567524,32.9686259 L28.7567524,28.8462223 L26.4910879,28.8462223 Z M13.3980744,28.8462223 C12.7663079,28.8462223 12.1817158,28.931974 11.6442981,29.1032912 C11.1068803,29.2747945 10.6438315,29.5188426 10.2555218,29.8359935 C9.86702701,30.1529584 9.56196612,30.5320514 9.34052411,30.9730864 C9.11889709,31.4143075 9.00826858,31.9009155 9.00826858,32.4329106 C9.00826858,32.9649056 9.11889709,33.4589542 9.34052411,33.9144982 C9.56196612,34.3700422 9.86702701,34.7636441 10.2555218,35.09549 C10.6438315,35.4271498 11.1068803,35.687753 11.6442981,35.8772995 C12.1817158,36.066846 12.7663079,36.1615262 13.3980744,36.1615262 L17.0580651,36.1615262 L18.5069656,34.2805703 L13.3980744,34.2805703 C13.0930135,34.2805703 12.8097823,34.2387176 12.5483809,34.154826 C12.2869794,34.0711205 12.0599875,33.9526307 11.86759,33.7997286 C11.6751926,33.6464545 11.5262696,33.4624884 11.4210061,33.2474583 C11.3157425,33.0326141 11.2630182,32.7937744 11.2630182,32.5311251 C11.2630182,32.2688478 11.3175925,32.0283339 11.426556,31.8095835 C11.5355195,31.5908331 11.6840725,31.4033328 11.87314,31.2465244 C12.0618374,31.0897161 12.2869794,30.9676921 12.5483809,30.8802663 C12.8097823,30.7928406 13.0930135,30.7489417 13.3980744,30.7489417 L17.0580651,30.7489417 L18.5069656,28.8462223 L13.3980744,28.8462223 Z M0,28.8462223 L0,36.1615262 L7.01492045,36.1615262 L8.46382092,34.2805703 L2.26566446,34.2805703 L2.26566446,33.2857768 L6.74260412,33.2857768 L8.03906665,31.6235713 L2.26566446,31.6235713 L2.26566446,30.7489417 L6.98217589,30.7489417 L8.44199122,28.8462223 L0,28.8462223 Z M89.1678732,28.9063043 L87.5121455,30.9293735 C87.250744,31.2502447 87.0507617,31.498013 86.9129386,31.6728645 C86.7749304,31.847716 86.6696668,31.9864812 86.5971478,32.0884159 C86.5607033,32.0374485 86.4990991,31.9609975 86.4119653,31.8586908 C86.3248315,31.7567561 86.2304828,31.6473808 86.1287341,31.5307512 C86.0269855,31.4143075 85.9289368,31.3030722 85.8345881,31.1972312 C85.7402394,31.0917622 85.6640204,31.0058246 85.6059312,30.9403483 L83.8630697,28.9063043 L80.9656387,28.9063043 L85.4098338,33.7941483 L85.4098338,36.2216082 L87.6754983,36.2216082 L87.6754983,33.804937 L92,28.9063043 L89.1678732,28.9063043 Z" id="Clip-2"></path>
                </g>
            </g>
        </g>
    </g>
</svg>