<?xml version="1.0" encoding="UTF-8"?>
<svg width="44px" height="30px" viewBox="0 0 44 30" version="1.1" xmlns="http://www.w3.org/2000/svg" xmlns:xlink="http://www.w3.org/1999/xlink">
    <!-- Generator: sketchtool 51.2 (57519) - http://www.bohemiancoding.com/sketch -->
    <title>4A319077-04A1-4CDC-B4D2-B522702D4906</title>
    <desc>Created with sketchtool.</desc>
    <defs></defs>
    <g id="Actual" stroke="none" stroke-width="1" fill="none" fill-rule="evenodd">
        <g id="01-01-01-01-dashboard" transform="translate(-294.000000, -1206.000000)" fill="#CCCCCC">
            <g id="Shape-Copy-5" transform="translate(272.000000, 1184.000000)">
                <g id="education-academic-cap-2" transform="translate(22.000000, 22.000000)">
                    <g id="icons">
                        <path d="M43.7965,8.61483333 C43.6975,8.4865 43.5765,8.38016667 43.4243333,8.31966667 C43.4206667,8.31783333 43.4188333,8.31416667 43.417,8.31416667 L22.3336667,0.0641666667 C22.1191667,-0.0201666667 21.8808333,-0.0201666667 21.6663333,0.0641666667 L0.583,8.31416667 C0.231,8.44983333 0,8.789 0,9.16666667 C0,9.54433333 0.231,9.8835 0.583,10.021 L5.5,11.9441667 L5.5,24.75 C5.5,25.0176667 5.61733333,25.2743333 5.82266667,25.4485 C8.84583333,28.0206667 15.4238333,29.3076667 22,29.3076667 C28.5761667,29.3076667 35.1541667,28.0206667 38.1773333,25.4485 C38.3826667,25.2743333 38.5,25.0176667 38.5,24.75 L38.5,11.9441667 L42.1666667,10.5086667 L42.1666667,21.0833333 C42.1666667,21.5893333 42.5773333,22 43.0833333,22 C43.5893333,22 44,21.5893333 44,21.0833333 L44,9.16666667 C44,8.99433333 43.9395,8.84216667 43.857,8.70466667 C43.8386667,8.67166667 43.8203333,8.64416667 43.7965,8.61483333 L43.7965,8.61483333 Z M36.6666667,24.31 C30.9265,28.6165 13.0735,28.6165 7.33333333,24.31 L7.33333333,12.6628333 L21.6663333,18.271 C21.7726667,18.3131667 21.8863333,18.3333333 22,18.3333333 C22.1136667,18.3333333 22.2273333,18.3131667 22.3336667,18.271 L36.6666667,12.6628333 L36.6666667,24.31 L36.6666667,24.31 Z M37.2643333,10.4591667 C37.2423333,10.4683333 37.2203333,10.4738333 37.2001667,10.4848333 L22,16.4321667 L6.79983333,10.4848333 C6.77783333,10.4738333 6.75766667,10.4665 6.73566667,10.4591667 L3.432,9.16666667 L22,1.90116667 L40.568,9.16666667 L37.2643333,10.4591667 L37.2643333,10.4591667 Z" id="Shape"></path>
                    </g>
                </g>
            </g>
        </g>
    </g>
</svg>