<?xml version="1.0" encoding="UTF-8"?>
<svg width="20px" height="20px" viewBox="0 0 20 20" version="1.1" xmlns="http://www.w3.org/2000/svg" xmlns:xlink="http://www.w3.org/1999/xlink">
    <!-- Generator: sketchtool 51.2 (57519) - http://www.bohemiancoding.com/sketch -->
    <title>51EA6B22-E023-4AC1-995B-A8C296E3AF8D</title>
    <desc>Created with sketchtool.</desc>
    <defs></defs>
    <g id="Actual" stroke="none" stroke-width="1" fill="none" fill-rule="evenodd">
        <g id="02-02-01-01-profile-leader-empty" transform="translate(-70.000000, -1188.000000)" fill="#A6A6A6">
            <path d="M82.311,1205.66477 C83.577,1203.61206 84.313,1201.32917 84.507,1199.00323 L87.93,1199.00323 C87.533,1202.16786 85.289,1204.76302 82.311,1205.66477 M80.005,1205.50564 C78.565,1203.55702 77.719,1201.30815 77.495,1199.00323 L82.506,1199.00323 C82.285,1201.30715 81.442,1203.55602 80.005,1205.50564 M72.069,1199.00323 L75.493,1199.00323 C75.689,1201.33017 76.429,1203.61507 77.699,1205.66777 C74.716,1204.76903 72.467,1202.17187 72.069,1199.00323 M77.288,1190.47915 C76.176,1192.51284 75.574,1194.7457 75.467,1197.00157 L72.069,1197.00157 C72.448,1193.98106 74.512,1191.48499 77.288,1190.47915 M79.967,1189.99675 C79.976,1189.98474 79.985,1189.97273 79.994,1189.96072 C80.003,1189.97273 80.011,1189.98474 80.02,1189.99675 C81.555,1192.08749 82.393,1194.52551 82.532,1197.00157 L77.467,1197.00157 C77.603,1194.52651 78.437,1192.08949 79.967,1189.99675 M87.93,1197.00157 L84.532,1197.00157 C84.422,1194.74369 83.816,1192.50984 82.699,1190.47415 C85.482,1191.47798 87.551,1193.97606 87.93,1197.00157 M80.855,1188.03712 C74.942,1187.5347 70,1192.19858 70,1198.0024 C70,1203.43892 74.335,1207.84258 79.71,1207.99571 C85.387,1208.15984 90,1203.59505 90,1198.0024 C90,1192.84011 86.068,1188.48249 80.855,1188.03712" id="globe_network-[#1294]"></path>
        </g>
    </g>
</svg>