<?xml version="1.0" encoding="UTF-8"?>
<svg width="16px" height="19px" viewBox="0 0 16 19" version="1.1" xmlns="http://www.w3.org/2000/svg" xmlns:xlink="http://www.w3.org/1999/xlink">
    <!-- Generator: sketchtool 51.2 (57519) - http://www.bohemiancoding.com/sketch -->
    <title>CFC39AEC-9F91-4650-8EE4-7FC01FC56C32</title>
    <desc>Created with sketchtool.</desc>
    <defs></defs>
    <g id="Actual" stroke="none" stroke-width="1" fill="none" fill-rule="evenodd">
        <g id="02-02-01-01-profile-leader-empty" transform="translate(-72.000000, -1254.000000)" fill="#A6A6A6">
            <path d="M86,1270.21202 C86,1270.76402 85.552,1271.00001 85,1271.00001 L84,1271.00001 C83.448,1271.00001 83,1270.76402 83,1270.21202 L83,1269.21203 C83,1268.10703 82.105,1267.00004 81,1267.00004 L79,1267.00004 C77.895,1267.00004 77,1268.10703 77,1269.21203 L77,1270.21202 C77,1270.76402 76.552,1271.00001 76,1271.00001 L75,1271.00001 C74.448,1271.00001 74,1270.76402 74,1270.21202 L74,1262.14907 C74,1262.01608 74.053,1261.88908 74.146,1261.79508 L79.283,1256.65911 C79.674,1256.26811 80.307,1256.26811 80.697,1256.65911 L85.854,1261.81508 C85.947,1261.90908 86,1262.03607 86,1262.16807 L86,1270.21202 Z M88,1261.62508 C88,1261.36008 87.895,1261.10708 87.709,1260.91908 L81.41,1254.58913 C80.63,1253.80613 79.363,1253.80313 78.58,1254.58313 L72.294,1260.84808 C72.106,1261.03608 72,1261.29008 72,1261.55608 L72,1271.21201 C72,1272.317 72.895,1273 74,1273 L77,1273 C78.105,1273 79,1272.317 79,1271.21201 L79,1270.21202 C79,1269.66002 79.448,1269.21203 80,1269.21203 C80.552,1269.21203 81,1269.66002 81,1270.21202 L81,1271.21201 C81,1272.317 81.895,1273 83,1273 L86,1273 C87.105,1273 88,1272.317 88,1271.21201 L88,1261.62508 Z" id="home-[#1393]"></path>
        </g>
    </g>
</svg>