<?xml version="1.0" encoding="UTF-8"?>
<svg width="14px" height="20px" viewBox="0 0 14 20" version="1.1" xmlns="http://www.w3.org/2000/svg" xmlns:xlink="http://www.w3.org/1999/xlink">
    <!-- Generator: sketchtool 51.2 (57519) - http://www.bohemiancoding.com/sketch -->
    <title>A712AD23-DF56-402B-8EA9-977425107208</title>
    <desc>Created with sketchtool.</desc>
    <defs></defs>
    <g id="Actual" stroke="none" stroke-width="1" fill="none" fill-rule="evenodd">
        <g id="07-01-03-01-profile-edit-personal-info" transform="translate(-418.000000, -1571.000000)" fill="#A6A6A6">
            <path d="M430,1588.00046 C430,1588.55246 429.552,1589.00046 429,1589.00046 L421,1589.00046 C420.448,1589.00046 420,1588.55246 420,1588.00046 L420,1580.00046 C420,1579.44846 420.448,1579.00046 421,1579.00046 L429,1579.00046 C429.552,1579.00046 430,1579.44846 430,1580.00046 L430,1588.00046 Z M423,1575.00046 C423,1573.89746 423.897,1573.00046 425,1573.00046 C426.103,1573.00046 427,1574.00046 427,1575.00046 L427,1577.00046 L423,1577.00046 L423,1575.00046 Z M429,1577.00046 L429,1575.00046 C429,1572.75346 426.739,1570.50546 424.164,1571.09546 C422.266,1571.53046 421,1573.34146 421,1575.28846 L421,1577.00046 L420,1577.00046 C418.895,1577.00046 418,1577.89546 418,1579.00046 L418,1589.00046 C418,1590.10546 418.895,1591.00046 420,1591.00046 L430,1591.00046 C431.105,1591.00046 432,1590.10546 432,1589.00046 L432,1579.00046 C432,1577.89546 431.105,1577.00046 430,1577.00046 L429,1577.00046 Z" id="lock_close_round-[#707]"></path>
        </g>
    </g>
</svg>