<?xml version="1.0" encoding="UTF-8"?>
<svg width="62px" height="60px" viewBox="0 0 62 60" version="1.1" xmlns="http://www.w3.org/2000/svg" xmlns:xlink="http://www.w3.org/1999/xlink">
    <!-- Generator: sketchtool 51.2 (57519) - http://www.bohemiancoding.com/sketch -->
    <title>447FB711-29BE-465B-A032-B5B710EF47B6</title>
    <desc>Created with sketchtool.</desc>
    <defs></defs>
    <g id="Actual" stroke="none" stroke-width="1" fill="none" fill-rule="evenodd">
        <g id="07-05-01-01-documents" transform="translate(-88.000000, -503.000000)" fill-rule="nonzero">
            <g id="Group" transform="translate(88.000000, 503.000000)">
                <path d="M8.08695652,59.3043478 C7.34257273,59.3043478 6.73913043,58.7009055 6.73913043,57.9565217 C6.73913043,57.2121379 7.34257273,56.6086957 8.08695652,56.6086957 L40.4329027,56.6086957 C41.1772865,56.6086957 41.7807288,57.2121379 41.7807288,57.9565217 C41.7807288,58.7009055 41.1772865,59.3043478 40.4329027,59.3043478 L8.08695652,59.3043478 Z M48.5140753,51.073863 C48.5933438,51.8140141 48.0575925,52.478285 47.3174414,52.5575535 C46.5772902,52.636822 45.9130193,52.1010708 45.8337508,51.3609196 C44.9300722,42.923031 44.4782609,34.3876318 44.4782609,25.7549193 C44.4782609,19.6389245 44.7050366,13.747749 45.1587493,8.0813338 C45.5241992,3.51743259 49.3345373,5.98555022e-16 53.9130435,0 C58.3793462,5.98555022e-16 62,3.62065376 62,8.08695652 L62,12.1304348 C62,14.3635862 60.1896731,16.173913 57.9565217,16.173913 L52.5652174,16.173913 C51.8208336,16.173913 51.2173913,15.5704707 51.2173913,14.826087 C51.2173913,14.0817032 51.8208336,13.4782609 52.5652174,13.4782609 L57.9565217,13.4782609 C58.7009055,13.4782609 59.3043478,12.8748186 59.3043478,12.1304348 L59.3043478,8.08695652 C59.3043478,5.10942135 56.8905787,2.69565217 53.9130435,2.69565217 C50.7398696,2.69565217 48.0990793,5.13344154 47.8458012,8.29649213 C47.3979294,13.8899588 47.173913,19.7094528 47.173913,25.7549193 C47.173913,34.292153 47.6206524,42.7317352 48.5140753,51.073863 Z M9.43577008,7.95927927 C9.50398784,3.55185556 13.0980733,5.98555022e-16 17.5217391,0 L54.0384996,0 C54.7828834,0 55.3863257,0.603442294 55.3863257,1.34782609 C55.3863257,2.09220988 54.7828834,2.69565217 54.0384996,2.69565217 L17.5217391,2.69565217 C14.544204,2.69565217 12.1304348,5.10942135 12.1304348,8.08695652 L12.1081947,8.33079439 C11.2257492,13.12807 10.7826087,18.8856136 10.7826087,25.5987122 C10.7826087,32.3215948 11.2269806,38.5460933 12.1145278,44.2717988 C12.2285537,45.0073974 11.7246694,45.6961541 10.9890708,45.81018 C10.2534722,45.9242059 9.56471543,45.4203216 9.45068957,44.684723 C8.54113532,38.8170465 8.08695652,32.4551793 8.08695652,25.5987122 C8.08695652,18.78585 8.53531217,12.9075737 9.43577008,7.95927927 Z M8.08695652,56.6086957 C8.83134031,56.6086957 9.43478261,57.2121379 9.43478261,57.9565217 C9.43478261,58.7009055 8.83134031,59.3043478 8.08695652,59.3043478 C3.62065376,59.3043478 0,55.6836941 0,51.2173913 L0,47.173913 C0,44.9407617 1.81032688,43.1304348 4.04347826,43.1304348 L9.43478261,43.1304348 C10.1791664,43.1304348 10.7826087,43.7338771 10.7826087,44.4782609 C10.7826087,45.2226447 10.1791664,45.826087 9.43478261,45.826087 L4.04347826,45.826087 C3.29909447,45.826087 2.69565217,46.4295293 2.69565217,47.173913 L2.69565217,51.2173913 C2.69565217,54.1949265 5.10942135,56.6086957 8.08695652,56.6086957 Z M5.39130435,45.826087 C4.64692055,45.826087 4.04347826,45.2226447 4.04347826,44.4782609 C4.04347826,43.7338771 4.64692055,43.1304348 5.39130435,43.1304348 L31,43.1304348 C33.2331514,43.1304348 35.0434783,44.9407617 35.0434783,47.173913 L35.0434783,51.2173913 C35.0434783,54.1949265 37.4572474,56.6086957 40.4347826,56.6086957 C43.4123178,56.6086957 45.826087,54.1949265 45.826087,51.2173913 C45.826087,50.4730075 46.4295293,49.8695652 47.173913,49.8695652 C47.9182968,49.8695652 48.5217391,50.4730075 48.5217391,51.2173913 C48.5217391,55.6836941 44.9010854,59.3043478 40.4347826,59.3043478 C35.9684798,59.3043478 32.3478261,55.6836941 32.3478261,51.2173913 L32.3478261,47.173913 C32.3478261,46.4295293 31.7443838,45.826087 31,45.826087 L5.39130435,45.826087 Z" id="Сertificate" fill="#E40000"></path>
                <path d="M18.8695652,32.3478261 C18.1251814,32.3478261 17.5217391,31.7443838 17.5217391,31 C17.5217391,30.2556162 18.1251814,29.6521739 18.8695652,29.6521739 L26.9546418,29.6521739 C27.6990256,29.6521739 28.3024679,30.2556162 28.3024679,31 C28.3024679,31.7443838 27.6990256,32.3478261 26.9546418,32.3478261 L18.8695652,32.3478261 Z" id="Line" fill="#292F48"></path>
                <path d="M24.2608696,13.4782609 C23.5164858,13.4782609 22.9130435,12.8748186 22.9130435,12.1304348 C22.9130435,11.386051 23.5164858,10.7826087 24.2608696,10.7826087 L32.3459462,10.7826087 C33.09033,10.7826087 33.6937723,11.386051 33.6937723,12.1304348 C33.6937723,12.8748186 33.09033,13.4782609 32.3459462,13.4782609 L24.2608696,13.4782609 Z" id="Line" fill="#292F48"></path>
                <path d="M18.8695652,21.5652174 C18.1251814,21.5652174 17.5217391,20.9617751 17.5217391,20.2173913 C17.5217391,19.4730075 18.1251814,18.8695652 18.8695652,18.8695652 L37.7372505,18.8695652 C38.4816343,18.8695652 39.0850766,19.4730075 39.0850766,20.2173913 C39.0850766,20.9617751 38.4816343,21.5652174 37.7372505,21.5652174 L18.8695652,21.5652174 Z" id="Line" fill="#292F48"></path>
                <path d="M18.8695652,26.9565217 C18.1251814,26.9565217 17.5217391,26.3530794 17.5217391,25.6086957 C17.5217391,24.8643119 18.1251814,24.2608696 18.8695652,24.2608696 L37.7372505,24.2608696 C38.4816343,24.2608696 39.0850766,24.8643119 39.0850766,25.6086957 C39.0850766,26.3530794 38.4816343,26.9565217 37.7372505,26.9565217 L18.8695652,26.9565217 Z" id="Line" fill="#292F48"></path>
                <path d="M37.7391304,43.1304348 C34.7615953,43.1304348 32.3478261,40.7166656 32.3478261,37.7391304 C32.3478261,34.7615953 34.7615953,32.3478261 37.7391304,32.3478261 C40.7166656,32.3478261 43.1304348,34.7615953 43.1304348,37.7391304 C43.1304348,40.7166656 40.7166656,43.1304348 37.7391304,43.1304348 Z M37.7391304,40.4347826 C39.227898,40.4347826 40.4347826,39.227898 40.4347826,37.7391304 C40.4347826,36.2503628 39.227898,35.0434783 37.7391304,35.0434783 C36.2503628,35.0434783 35.0434783,36.2503628 35.0434783,37.7391304 C35.0434783,39.227898 36.2503628,40.4347826 37.7391304,40.4347826 Z" id="Combined-Shape" fill="#292F48"></path>
            </g>
        </g>
    </g>
</svg>