<?xml version="1.0" encoding="UTF-8"?>
<svg width="42px" height="42px" viewBox="0 0 42 42" version="1.1" xmlns="http://www.w3.org/2000/svg" xmlns:xlink="http://www.w3.org/1999/xlink">
    <!-- Generator: sketchtool 51.2 (57519) - http://www.bohemiancoding.com/sketch -->
    <title>5AA1C0B8-6AFB-4C12-B3E7-855779A2778B</title>
    <desc>Created with sketchtool.</desc>
    <defs></defs>
    <g id="Actual" stroke="none" stroke-width="1" fill="none" fill-rule="evenodd">
        <g id="01-01-01-01-dashboard" transform="translate(-295.000000, -1062.000000)" fill="#E40000">
            <g id="Shape-Copy" transform="translate(272.000000, 1040.000000)">
                <g id="56-design-object-moving" transform="translate(23.000000, 22.000000)">
                    <g id="icons">
                        <path d="M0.875,42 L16.625,42 C17.108,42 17.5,41.608 17.5,41.125 L17.5,25.73725 L26.25,16.98725 L26.25,21.875 C26.25,22.358 26.642,22.75 27.125,22.75 C27.608,22.75 28,22.358 28,21.875 L28,14.875 C28,14.76125 27.97725,14.6475 27.9335,14.54075 C27.84425,14.32725 27.6745,14.15575 27.45925,14.0665 C27.3525,14.02275 27.23875,14 27.125,14 L20.125,14 C19.642,14 19.25,14.392 19.25,14.875 C19.25,15.358 19.642,15.75 20.125,15.75 L25.01275,15.75 L16.26275,24.5 L0.875,24.5 C0.392,24.5 0,24.892 0,25.375 L0,41.125 C0,41.608 0.392,42 0.875,42 L0.875,42 Z M1.75,26.25 L7,26.25 L7,29.06925 C7,29.55225 7.392,29.94425 7.875,29.94425 C8.358,29.94425 8.75,29.55225 8.75,29.06925 L8.75,26.25 L15.75,26.25 L15.75,33.25 L12.93075,33.25 C12.44775,33.25 12.05575,33.642 12.05575,34.125 C12.05575,34.608 12.44775,35 12.93075,35 L15.75,35 L15.75,40.25 L1.75,40.25 L1.75,26.25 L1.75,26.25 Z" id="Shape"></path>
                        <path d="M41.125,31.5 C40.642,31.5 40.25,31.892 40.25,32.375 L40.25,33.25 L39.375,33.25 C38.892,33.25 38.5,33.642 38.5,34.125 C38.5,34.608 38.892,35 39.375,35 L41.125,35 C41.608,35 42,34.608 42,34.125 L42,32.375 C42,31.892 41.608,31.5 41.125,31.5 L41.125,31.5 Z" id="Shape"></path>
                        <path d="M19.54225,33.25 C19.05925,33.25 18.66725,33.642 18.66725,34.125 C18.66725,34.608 19.05925,35 19.54225,35 L22.848,35 C23.331,35 23.723,34.608 23.723,34.125 C23.723,33.642 23.331,33.25 22.848,33.25 L19.54225,33.25 L19.54225,33.25 Z" id="Shape"></path>
                        <path d="M26.152,33.25 C25.669,33.25 25.277,33.642 25.277,34.125 C25.277,34.608 25.669,35 26.152,35 L29.4595,35 C29.9425,35 30.3345,34.608 30.3345,34.125 C30.3345,33.642 29.9425,33.25 29.4595,33.25 L26.152,33.25 L26.152,33.25 Z" id="Shape"></path>
                        <path d="M36.06925,33.25 L32.7635,33.25 C32.2805,33.25 31.8885,33.642 31.8885,34.125 C31.8885,34.608 32.2805,35 32.7635,35 L36.06925,35 C36.55225,35 36.94425,34.608 36.94425,34.125 C36.94425,33.642 36.554,33.25 36.06925,33.25 L36.06925,33.25 Z" id="Shape"></path>
                        <path d="M9.625,33.25 L8.75,33.25 L8.75,32.375 C8.75,31.892 8.358,31.5 7.875,31.5 C7.392,31.5 7,31.892 7,32.375 L7,34.125 C7,34.608 7.392,35 7.875,35 L9.625,35 C10.108,35 10.5,34.608 10.5,34.125 C10.5,33.642 10.108,33.25 9.625,33.25 L9.625,33.25 Z" id="Shape"></path>
                        <path d="M7,9.2365 C7,9.7195 7.392,10.1115 7.875,10.1115 C8.358,10.1115 8.75,9.7195 8.75,9.2365 L8.75,5.93075 C8.75,5.44775 8.358,5.05575 7.875,5.05575 C7.392,5.05575 7,5.44775 7,5.93075 L7,9.2365 L7,9.2365 Z" id="Shape"></path>
                        <path d="M7,22.45775 C7,22.94075 7.392,23.33275 7.875,23.33275 C8.358,23.33275 8.75,22.939 8.75,22.45775 L8.75,19.152 C8.75,18.669 8.358,18.277 7.875,18.277 C7.392,18.277 7,18.669 7,19.15375 L7,22.45775 L7,22.45775 Z" id="Shape"></path>
                        <path d="M7,15.848 C7,16.331 7.392,16.723 7.875,16.723 C8.358,16.723 8.75,16.331 8.75,15.848 L8.75,12.54225 C8.75,12.05925 8.358,11.66725 7.875,11.66725 C7.392,11.66725 7,12.05925 7,12.54225 L7,15.848 L7,15.848 Z" id="Shape"></path>
                        <path d="M7.875,3.5 C8.358,3.5 8.75,3.108 8.75,2.625 L8.75,1.75 L9.625,1.75 C10.108,1.75 10.5,1.358 10.5,0.875 C10.5,0.392 10.108,0 9.625,0 L7.875,0 C7.392,0 7,0.392 7,0.875 L7,2.625 C7,3.108 7.392,3.5 7.875,3.5 L7.875,3.5 Z" id="Shape"></path>
                        <path d="M22.848,1.75 C23.331,1.75 23.723,1.358 23.723,0.875 C23.723,0.392 23.331,0 22.848,0 L19.5405,0 C19.0575,0 18.6655,0.392 18.6655,0.875 C18.6655,1.358 19.0575,1.75 19.5405,1.75 L22.848,1.75 L22.848,1.75 Z" id="Shape"></path>
                        <path d="M36.06925,0 L32.76175,0 C32.27875,0 31.88675,0.392 31.88675,0.875 C31.88675,1.358 32.27875,1.75 32.76175,1.75 L36.06925,1.75 C36.55225,1.75 36.94425,1.358 36.94425,0.875 C36.94425,0.392 36.554,0 36.06925,0 L36.06925,0 Z" id="Shape"></path>
                        <path d="M16.23475,1.75 C16.71775,1.75 17.10975,1.358 17.10975,0.875 C17.10975,0.392 16.7195,0 16.23475,0 L12.93075,0 C12.44775,0 12.05575,0.392 12.05575,0.875 C12.05575,1.358 12.446,1.75 12.93075,1.75 L16.23475,1.75 L16.23475,1.75 Z" id="Shape"></path>
                        <path d="M29.45775,0 L26.152,0 C25.669,0 25.277,0.392 25.277,0.875 C25.277,1.358 25.669,1.75 26.152,1.75 L29.45775,1.75 C29.94075,1.75 30.33275,1.358 30.33275,0.875 C30.33275,0.392 29.94075,0 29.45775,0 L29.45775,0 Z" id="Shape"></path>
                        <path d="M41.125,0 L39.375,0 C38.892,0 38.5,0.392 38.5,0.875 C38.5,1.358 38.892,1.75 39.375,1.75 L40.25,1.75 L40.25,2.625 C40.25,3.108 40.642,3.5 41.125,3.5 C41.608,3.5 42,3.108 42,2.625 L42,0.875 C42,0.392 41.608,0 41.125,0 L41.125,0 Z" id="Shape"></path>
                        <path d="M41.125,18.277 C40.642,18.277 40.25,18.669 40.25,19.152 L40.25,22.45775 C40.25,22.94075 40.642,23.33275 41.125,23.33275 C41.608,23.33275 42,22.94075 42,22.45775 L42,19.152 C42,18.669 41.608,18.277 41.125,18.277 L41.125,18.277 Z" id="Shape"></path>
                        <path d="M41.125,11.66725 C40.642,11.66725 40.25,12.05925 40.25,12.54225 L40.25,15.848 C40.25,16.331 40.642,16.723 41.125,16.723 C41.608,16.723 42,16.331 42,15.848 L42,12.54225 C42,12.0575 41.608,11.66725 41.125,11.66725 L41.125,11.66725 Z" id="Shape"></path>
                        <path d="M41.125,5.05575 C40.642,5.05575 40.25,5.44775 40.25,5.93075 L40.25,9.2365 C40.25,9.7195 40.642,10.1115 41.125,10.1115 C41.608,10.1115 42,9.7195 42,9.2365 L42,5.93075 C42,5.446 41.608,5.05575 41.125,5.05575 L41.125,5.05575 Z" id="Shape"></path>
                        <path d="M41.125,24.8885 C40.642,24.8885 40.25,25.2805 40.25,25.7635 L40.25,29.071 C40.25,29.554 40.642,29.946 41.125,29.946 C41.608,29.946 42,29.554 42,29.071 L42,25.7635 C42,25.27875 41.608,24.8885 41.125,24.8885 L41.125,24.8885 Z" id="Shape"></path>
                    </g>
                </g>
            </g>
        </g>
    </g>
</svg>