<?xml version="1.0" encoding="UTF-8"?>
<svg width="12px" height="12px" viewBox="0 0 12 12" version="1.1" xmlns="http://www.w3.org/2000/svg" xmlns:xlink="http://www.w3.org/1999/xlink">
    <!-- Generator: sketchtool 51.2 (57519) - http://www.bohemiancoding.com/sketch -->
    <title>A9A4840E-C5F5-4E8A-ABFD-68199E6DBB91</title>
    <desc>Created with sketchtool.</desc>
    <defs></defs>
    <g id="UI-Kit" stroke="none" stroke-width="1" fill="none" fill-rule="evenodd">
        <g transform="translate(-834.000000, -485.000000)" fill="#FFFFFF" id="Phone-Copy-4">
            <g transform="translate(826.000000, 477.000000)">
                <path d="M19.7843309,18.3963952 C19.413928,19.521955 17.9627164,20.083535 16.9259082,19.9899383 C15.509897,19.8619429 13.9690847,19.1107697 12.7994754,18.2835992 C11.0802618,17.0676426 9.46984896,15.1869097 8.5314415,13.190981 C7.86823623,11.7806313 7.71943505,10.0462932 8.70584289,8.76073908 C9.07064579,8.28555604 9.46504892,8.03196509 10.0578536,8.00236615 C10.8802602,7.96236758 10.9954611,8.43275079 11.2778633,9.16552464 C11.488265,9.71350508 11.7690672,10.2726851 11.9258685,10.8406648 C12.2194708,11.900627 11.1930627,11.9446254 11.0634616,12.8109945 C10.982661,13.357375 11.6450662,14.0901489 11.9442686,14.479735 C12.5306733,15.2429077 13.2354789,15.9012842 14.0306852,16.4020664 C14.4858888,16.6892561 15.2210947,17.2068376 15.7426988,16.9212478 C16.5459052,16.4812635 16.4699046,15.1269119 17.5931135,15.5852955 C18.1747181,15.8220871 18.7379226,16.1636749 19.293127,16.4628642 C20.1515338,16.9244477 20.1115335,17.4028306 19.7843309,18.3963952 C19.539529,19.1387687 20.0291329,17.6540217 19.7843309,18.3963952" id="call-[#192]-copy-3"></path>
            </g>
        </g>
    </g>
</svg>