<?xml version="1.0" encoding="UTF-8"?>
<svg width="15px" height="15px" viewBox="0 0 15 15" version="1.1" xmlns="http://www.w3.org/2000/svg" xmlns:xlink="http://www.w3.org/1999/xlink">
    <!-- Generator: sketchtool 51.2 (57519) - http://www.bohemiancoding.com/sketch -->
    <title>1EB2437A-5AEF-41E3-A2BD-7B3118924320</title>
    <desc>Created with sketchtool.</desc>
    <defs></defs>
    <g id="Actual" stroke="none" stroke-width="1" fill="none" fill-rule="evenodd">
        <g id="02-02-01-01-profile-leader-empty" transform="translate(-73.000000, -1322.000000)" fill="#A6A6A6">
            <path d="M87.7304136,1334.99549 C87.26741,1336.40244 85.4533955,1337.10442 84.1573853,1336.98742 C82.3873712,1336.82743 80.4613559,1335.88846 78.9993443,1334.8545 C76.8503272,1333.33455 74.8373112,1330.98364 73.6643019,1328.48873 C72.8352953,1326.72579 72.6492938,1324.55787 73.8823036,1322.95092 C74.3383072,1322.35695 74.8313112,1322.03996 75.572317,1322.00296 C76.6003252,1321.95296 76.7443264,1322.54094 77.0973292,1323.45691 C77.3603312,1324.14188 77.711334,1324.84086 77.9073356,1325.55083 C78.2743385,1326.87578 76.9913283,1326.93078 76.829327,1328.01374 C76.7283262,1328.69672 77.5563328,1329.61269 77.9303358,1330.09967 C78.6633416,1331.05363 79.5443486,1331.87661 80.5383565,1332.50258 C81.107361,1332.86157 82.0263683,1333.50855 82.6783735,1333.15156 C83.6823815,1332.60158 83.5873807,1330.90864 84.9913919,1331.48162 C85.7183977,1331.77761 86.4224032,1332.20459 87.1164088,1332.57858 C88.1894173,1333.15556 88.1394169,1333.75354 87.7304136,1334.99549 C87.4244112,1335.92346 88.0364161,1334.06753 87.7304136,1334.99549" id="call-[#192]"></path>
        </g>
    </g>
</svg>