<?xml version="1.0" encoding="UTF-8"?>
<svg width="44px" height="44px" viewBox="0 0 44 44" version="1.1" xmlns="http://www.w3.org/2000/svg" xmlns:xlink="http://www.w3.org/1999/xlink">
    <!-- Generator: sketchtool 51.2 (57519) - http://www.bohemiancoding.com/sketch -->
    <title>62DC3D94-72E7-4E35-B7A7-5154263D74F4</title>
    <desc>Created with sketchtool.</desc>
    <defs></defs>
    <g id="Actual" stroke="none" stroke-width="1" fill="none" fill-rule="evenodd">
        <g id="01-01-01-01-dashboard" transform="translate(-77.000000, -1348.000000)" fill="#E40000">
            <g id="Shape-Copy-8" transform="translate(56.000000, 1328.000000)">
                <g id="gaming-puzzle-piece" transform="translate(21.000000, 20.000000)">
                    <g id="icons">
                        <path d="M43.0434783,9.56521739 L37.6008696,9.56521739 C38.0332174,8.67373913 38.2608696,7.69426087 38.2608696,6.69565217 C38.2608696,3.00347826 35.2573913,0 31.5652174,0 C27.8730435,0 24.8695652,3.00347826 24.8695652,6.69565217 C24.8695652,7.69426087 25.0972174,8.67373913 25.5295652,9.56521739 L10.5217391,9.56521739 C9.99373913,9.56521739 9.56521739,9.99373913 9.56521739,10.5217391 L9.56521739,25.5295652 C8.67373913,25.0972174 7.69426087,24.8695652 6.69565217,24.8695652 C3.00347826,24.8695652 0,27.8730435 0,31.5652174 C0,35.2573913 3.00347826,38.2608696 6.69565217,38.2608696 C7.69426087,38.2608696 8.67373913,38.0332174 9.56521739,37.6008696 L9.56521739,43.0434783 C9.56521739,43.5714783 9.99373913,44 10.5217391,44 L43.0434783,44 C43.5714783,44 44,43.5714783 44,43.0434783 L44,35.8313043 C44,35.4544348 43.778087,35.110087 43.4318261,34.9570435 C43.0855652,34.802087 42.6838261,34.8690435 42.4026087,35.1215652 C41.5283478,35.9116522 40.3977391,36.3478261 39.2173913,36.3478261 C36.5793043,36.3478261 34.4347826,34.2033043 34.4347826,31.5652174 C34.4347826,28.9271304 36.5793043,26.7826087 39.2173913,26.7826087 C40.3977391,26.7826087 41.5283478,27.2187826 42.4026087,28.0088696 C42.681913,28.2633043 43.0836522,28.3283478 43.4318261,28.1733913 C43.778087,28.0184348 44,27.676 44,27.2991304 L44,10.5217391 C44,9.99373913 43.5714783,9.56521739 43.0434783,9.56521739 L43.0434783,9.56521739 Z M42.0869565,25.518087 C41.1993043,25.0933913 40.2198261,24.8695652 39.2173913,24.8695652 C35.5252174,24.8695652 32.5217391,27.8730435 32.5217391,31.5652174 C32.5217391,35.2573913 35.5252174,38.2608696 39.2173913,38.2608696 C40.2198261,38.2608696 41.1993043,38.0370435 42.0869565,37.6123478 L42.0869565,42.0869565 L11.4782609,42.0869565 L11.4782609,35.8121739 C11.4782609,35.4333913 11.2563478,35.0909565 10.910087,34.937913 C10.56,34.7829565 10.1582609,34.849913 9.87895652,35.1043478 C8.99321739,35.905913 7.8626087,36.3478261 6.69565217,36.3478261 C4.05756522,36.3478261 1.91304348,34.2033043 1.91304348,31.5652174 C1.91304348,28.9271304 4.05756522,26.7826087 6.69565217,26.7826087 C7.8626087,26.7826087 8.99321739,27.2245217 9.87895652,28.026087 C10.1582609,28.2786087 10.558087,28.3474783 10.910087,28.1925217 C11.2563478,28.0394783 11.4782609,27.6989565 11.4782609,27.3182609 L11.4782609,11.4782609 L27.3182609,11.4782609 C27.6970435,11.4782609 28.0394783,11.2563478 28.1925217,10.910087 C28.3455652,10.561913 28.2805217,10.1582609 28.026087,9.87895652 C27.2245217,8.99321739 26.7826087,7.8626087 26.7826087,6.69565217 C26.7826087,4.05756522 28.9271304,1.91304348 31.5652174,1.91304348 C34.2033043,1.91304348 36.3478261,4.05756522 36.3478261,6.69565217 C36.3478261,7.8626087 35.905913,8.99321739 35.1043478,9.87895652 C34.849913,10.1582609 34.7848696,10.561913 34.937913,10.910087 C35.0909565,11.2563478 35.4314783,11.4782609 35.8121739,11.4782609 L42.0869565,11.4782609 L42.0869565,25.518087 L42.0869565,25.518087 Z" id="Shape"></path>
                    </g>
                </g>
            </g>
        </g>
    </g>
</svg>