<?xml version="1.0" encoding="UTF-8"?>
<svg width="7px" height="10px" viewBox="0 0 7 10" version="1.1" xmlns="http://www.w3.org/2000/svg" xmlns:xlink="http://www.w3.org/1999/xlink">
    <!-- Generator: sketchtool 51.2 (57519) - http://www.bohemiancoding.com/sketch -->
    <title>A49CF14F-1785-4910-B800-50F09C064BC9</title>
    <desc>Created with sketchtool.</desc>
    <defs></defs>
    <g id="Actual" stroke="none" stroke-width="1" fill="none" fill-rule="evenodd">
        <g id="01-01-01-01-dashboard" transform="translate(-420.000000, -333.000000)" fill="#FFFFFF">
            <path d="M422.208955,339.430518 C422.208955,338.899183 422.402985,338.463215 422.686567,338.081744 C422.970149,337.713896 423.328358,337.386921 423.686567,337.073569 C424.223881,336.59673 424.701493,336.160763 424.701493,335.615804 C424.701493,334.975477 424.343284,334.607629 423.552239,334.607629 C422.716418,334.607629 422.179104,335.138965 422.074627,336.010899 L420,336.010899 C420.044776,335.070845 420.432836,334.321526 421.089552,333.790191 C421.731343,333.286104 422.626866,333 423.686567,333 C424.776119,333 425.61194,333.245232 426.164179,333.681199 C426.716418,334.117166 427,334.730245 427,335.452316 C427,336.392371 426.41791,337.032698 425.776119,337.591281 C425.41791,337.904632 425.044776,338.190736 424.761194,338.504087 C424.462687,338.817439 424.253731,339.13079 424.208955,339.498638 L424.208955,339.839237 L422.208955,339.839237 L422.208955,339.430518 Z M423.19403,343 C422.820896,343 422.462687,342.877384 422.223881,342.659401 C421.970149,342.441417 421.820896,342.155313 421.820896,341.828338 C421.820896,341.501362 421.970149,341.201635 422.223881,340.983651 C422.462687,340.765668 422.820896,340.643052 423.19403,340.643052 C423.955224,340.643052 424.552239,341.160763 424.552239,341.828338 C424.552239,342.155313 424.402985,342.441417 424.164179,342.659401 C423.910448,342.877384 423.567164,343 423.19403,343 Z" id="question"></path>
        </g>
    </g>
</svg>