<?xml version="1.0" encoding="UTF-8"?>
<svg width="12px" height="12px" viewBox="0 0 12 12" version="1.1" xmlns="http://www.w3.org/2000/svg" xmlns:xlink="http://www.w3.org/1999/xlink">
    <!-- Generator: sketchtool 51.2 (57519) - http://www.bohemiancoding.com/sketch -->
    <title>F5EB7234-0D47-47C9-A8FC-42278EA0053A</title>
    <desc>Created with sketchtool.</desc>
    <defs></defs>
    <g id="Actual" stroke="none" stroke-width="1" fill="none" fill-rule="evenodd">
        <g id="07-04-01-01-list-of-invited" transform="translate(-504.000000, -196.000000)" fill="#808080">
            <g id="Search" transform="translate(504.000000, 196.000000)">
                <path d="M1.03786304,4.03826087 C1.03786304,2.38382609 2.4025936,1.03786957 4.08010479,1.03786957 C5.75748555,1.03786957 7.12221611,2.38382609 7.12221611,4.03826087 C7.12221611,5.69269565 5.75748555,7.03865217 4.08010479,7.03865217 C2.4025936,7.03865217 1.03786304,5.69269565 1.03786304,4.03826087 M11.8265778,11.001 L7.29399764,6.52134783 C7.83582032,5.83578261 8.16007915,4.974 8.16007915,4.03826087 C8.16007915,1.81147826 6.32982978,0 4.08010479,0 C1.8303798,0 0,1.81147826 0,4.03826087 C0,6.26491304 1.8303798,8.07652174 4.08010479,8.07652174 C4.96170795,8.07652174 5.77822455,7.7973913 6.44617688,7.32495652 L11.0058874,11.8314783 C11.1196258,11.943913 11.2679292,12 11.4162326,12 C11.5667534,12 11.7172742,11.942087 11.8314039,11.8265217 C12.0580981,11.5972174 12.0558808,11.2276957 11.8265778,11.001" id="search" transform="translate(6.000000, 6.000000) scale(-1, 1) translate(-6.000000, -6.000000) "></path>
            </g>
        </g>
    </g>
</svg>