<?xml version="1.0" encoding="UTF-8"?>
<svg width="36px" height="46px" viewBox="0 0 36 46" version="1.1" xmlns="http://www.w3.org/2000/svg" xmlns:xlink="http://www.w3.org/1999/xlink">
    <!-- Generator: sketchtool 51.2 (57519) - http://www.bohemiancoding.com/sketch -->
    <title>FA38209C-557B-4734-B8AD-E36AC6B94ED0</title>
    <desc>Created with sketchtool.</desc>
    <defs></defs>
    <g id="Actual" stroke="none" stroke-width="1" fill="none" fill-rule="evenodd">
        <g id="01-01-01-01-dashboard" transform="translate(-297.000000, -1350.000000)" fill="#E40000">
            <g id="Shape-Copy-9" transform="translate(272.000000, 1328.000000)">
                <g id="gaming-shield-2" transform="translate(25.000000, 22.000000)">
                    <g id="icons">
                        <path d="M10.5650526,39.4370526 L17.3861053,45.2463158 C17.4315789,45.2842105 17.4846316,45.3031579 17.5338947,45.3315789 C17.5755789,45.3562105 17.6115789,45.3846316 17.6551579,45.4016842 C17.7669474,45.4471579 17.8825263,45.4736842 18,45.4736842 C18.1174737,45.4736842 18.2330526,45.4471579 18.3448421,45.4035789 C18.3903158,45.3865263 18.4263158,45.3562105 18.4661053,45.3334737 C18.5153684,45.3050526 18.5684211,45.2861053 18.6138947,45.2482105 L25.4349474,39.4389474 C32.1498947,33.7187368 36,25.2814737 36,16.2909474 L36,3.02210526 C36,2.60147368 35.7233684,2.232 35.3197895,2.11452632 C30.6757895,0.750315789 24.5254737,0 18,0 C11.4745263,0 5.32421053,0.750315789 0.680210526,2.11263158 C0.276631579,2.232 0,2.60147368 0,3.02210526 L0,16.2909474 C0,25.2814737 3.85010526,33.7187368 10.5650526,39.4370526 L10.5650526,39.4370526 Z M34.1052632,16.2909474 C34.1052632,24.7263158 30.4976842,32.6368421 24.2052632,37.9951579 L18.9473684,42.4743158 L18.9473684,1.908 C24.6258947,1.97242105 29.9482105,2.61094737 34.1052632,3.73831579 L34.1052632,16.2909474 L34.1052632,16.2909474 Z M1.89473684,3.73831579 C6.05178947,2.61094737 11.3741053,1.97242105 17.0526316,1.908 L17.0526316,42.4743158 L11.7947368,37.9951579 C5.50231579,32.6368421 1.89473684,24.7263158 1.89473684,16.2909474 L1.89473684,3.73831579 L1.89473684,3.73831579 Z" id="Shape"></path>
                        <path d="M14.2105263,34.1052632 C14.7334737,34.1052632 15.1578947,33.6808421 15.1578947,33.1578947 L15.1578947,6.63157895 C15.1578947,6.10863158 14.7334737,5.68421053 14.2105263,5.68421053 C13.6875789,5.68421053 13.2631579,6.10863158 13.2631579,6.63157895 L13.2631579,33.1578947 C13.2631579,33.6808421 13.6875789,34.1052632 14.2105263,34.1052632 L14.2105263,34.1052632 Z" id="Shape"></path>
                        <path d="M10.4210526,30.3157895 C10.944,30.3157895 11.3684211,29.8913684 11.3684211,29.3684211 L11.3684211,10.4210526 C11.3684211,9.89810526 10.944,9.47368421 10.4210526,9.47368421 C9.89810526,9.47368421 9.47368421,9.89810526 9.47368421,10.4210526 L9.47368421,29.3684211 C9.47368421,29.8913684 9.89810526,30.3157895 10.4210526,30.3157895 L10.4210526,30.3157895 Z" id="Shape"></path>
                        <path d="M6.63157895,13.2631579 C6.10863158,13.2631579 5.68421053,13.6875789 5.68421053,14.2105263 L5.68421053,27.4736842 C5.68421053,27.9966316 6.10863158,28.4210526 6.63157895,28.4210526 C7.15452632,28.4210526 7.57894737,27.9966316 7.57894737,27.4736842 L7.57894737,14.2105263 C7.57894737,13.6875789 7.15452632,13.2631579 6.63157895,13.2631579 L6.63157895,13.2631579 Z" id="Shape"></path>
                    </g>
                </g>
            </g>
        </g>
    </g>
</svg>