<?xml version="1.0" encoding="UTF-8"?>
<svg width="43px" height="43px" viewBox="0 0 43 43" version="1.1" xmlns="http://www.w3.org/2000/svg" xmlns:xlink="http://www.w3.org/1999/xlink">
    <!-- Generator: sketchtool 51.2 (57519) - http://www.bohemiancoding.com/sketch -->
    <title>5E9E3D6E-216C-44E7-9656-CDA924839B4B</title>
    <desc>Created with sketchtool.</desc>
    <defs></defs>
    <g id="Actual" stroke="none" stroke-width="1" fill="none" fill-rule="evenodd">
        <g id="01-01-01-01-dashboard" transform="translate(-726.000000, -1352.000000)" fill="#E40000">
            <g id="Shape-Copy-11" transform="translate(704.000000, 1328.000000)">
                <g id="gaming-ship-wheel" transform="translate(22.000000, 24.000000)">
                    <g id="icons">
                        <path d="M42.0652174,20.5652174 L37.3445652,20.5652174 C37.1295652,16.8896522 35.6638261,13.5506087 33.3605217,10.9612609 L36.7033043,7.61847826 C37.0678696,7.25391304 37.0678696,6.66126087 36.7033043,6.29669565 C36.3387391,5.93213043 35.746087,5.93213043 35.3815217,6.29669565 L32.0387391,9.63947826 C29.4493913,7.33617391 26.1103478,5.87230435 22.4347826,5.65543478 L22.4347826,0.934782609 C22.4347826,0.418782609 22.016,0 21.5,0 C20.984,0 20.5652174,0.418782609 20.5652174,0.934782609 L20.5652174,5.65543478 C16.8896522,5.87230435 13.5506087,7.33617391 10.9612609,9.63947826 L7.61847826,6.29669565 C7.25391304,5.93213043 6.66126087,5.93213043 6.29669565,6.29669565 C5.93213043,6.66126087 5.93213043,7.25391304 6.29669565,7.61847826 L9.63947826,10.9612609 C7.33617391,13.5506087 5.87230435,16.8896522 5.65543478,20.5652174 L0.934782609,20.5652174 C0.418782609,20.5652174 0,20.984 0,21.5 C0,22.016 0.418782609,22.4347826 0.934782609,22.4347826 L5.65543478,22.4347826 C5.87043478,26.1103478 7.33617391,29.4493913 9.63947826,32.0387391 L6.29669565,35.3815217 C5.93213043,35.746087 5.93213043,36.3387391 6.29669565,36.7033043 C6.47991304,36.8865217 6.71921739,36.9762609 6.95852174,36.9762609 C7.19782609,36.9762609 7.43713043,36.8846522 7.62034783,36.7033043 L10.9631304,33.3605217 C13.5524783,35.6638261 16.8915217,37.1276957 20.567087,37.3445652 L20.567087,42.0652174 C20.567087,42.5812174 20.9858696,43 21.5018696,43 C22.0178696,43 22.4366522,42.5812174 22.4366522,42.0652174 L22.4366522,37.3445652 C26.1122174,37.1295652 29.4512609,35.6638261 32.0406087,33.3605217 L35.3833913,36.7033043 C35.5666087,36.8865217 35.805913,36.9762609 36.0452174,36.9762609 C36.2845217,36.9762609 36.5238261,36.8846522 36.7070435,36.7033043 C37.0716087,36.3387391 37.0716087,35.746087 36.7070435,35.3815217 L33.3642609,32.0387391 C35.6675652,29.4493913 37.1314348,26.1103478 37.3483043,22.4347826 L42.0652174,22.4347826 C42.5812174,22.4347826 43,22.016 43,21.5 C43,20.984 42.5812174,20.5652174 42.0652174,20.5652174 L42.0652174,20.5652174 Z M21.5,35.5217391 C13.7674783,35.5217391 7.47826087,29.2325217 7.47826087,21.5 C7.47826087,13.7674783 13.7674783,7.47826087 21.5,7.47826087 C29.2325217,7.47826087 35.5217391,13.7674783 35.5217391,21.5 C35.5217391,29.2325217 29.2325217,35.5217391 21.5,35.5217391 L21.5,35.5217391 Z" id="Shape"></path>
                        <path d="M28.7707391,14.2292609 C28.7632609,14.2217826 28.753913,14.219913 28.7483043,14.2143043 C26.8862174,12.3634348 24.324913,11.2173913 21.5,11.2173913 C18.675087,11.2173913 16.1137826,12.3634348 14.2535652,14.2143043 C14.246087,14.2217826 14.2367391,14.2236522 14.2292609,14.2292609 C14.2217826,14.2348696 14.2217826,14.246087 14.2143043,14.2535652 C12.3634348,16.1137826 11.2173913,18.675087 11.2173913,21.5 C11.2173913,24.324913 12.3634348,26.8862174 14.2143043,28.7464348 C14.2217826,28.753913 14.2236522,28.7632609 14.2292609,28.7688696 C14.2348696,28.7744783 14.246087,28.7782174 14.2516957,28.7838261 C16.1137826,30.6365652 18.675087,31.7826087 21.5,31.7826087 C24.324913,31.7826087 26.8862174,30.6365652 28.7464348,28.7856957 C28.753913,28.7782174 28.7632609,28.7763478 28.7688696,28.7707391 C28.7744783,28.7651304 28.7782174,28.753913 28.7838261,28.7483043 C30.6365652,26.8862174 31.7826087,24.324913 31.7826087,21.5 C31.7826087,18.675087 30.6365652,16.1137826 28.7856957,14.2535652 C28.7782174,14.246087 28.7763478,14.2367391 28.7707391,14.2292609 L28.7707391,14.2292609 Z M28.0434783,26.7216957 L25.3943043,24.0725217 C25.7196087,23.5826957 25.9570435,23.0293043 26.0785652,22.432913 L29.8176957,22.432913 C29.6363478,24.050087 29.0100435,25.5158261 28.0434783,26.7216957 L28.0434783,26.7216957 Z M13.1823043,22.4347826 L16.9214348,22.4347826 C17.0429565,23.0311739 17.2803913,23.5826957 17.6056957,24.0743913 L14.9565217,26.7216957 C13.9899565,25.5158261 13.3636522,24.050087 13.1823043,22.4347826 L13.1823043,22.4347826 Z M14.9565217,16.2783043 L17.6056957,18.9274783 C17.2803913,19.4173043 17.041087,19.9688261 16.9214348,20.5652174 L13.1823043,20.5652174 C13.3636522,18.949913 13.9899565,17.4841739 14.9565217,16.2783043 L14.9565217,16.2783043 Z M21.5,24.3043478 C19.9538696,24.3043478 18.6956522,23.0461304 18.6956522,21.5 C18.6956522,19.9538696 19.9538696,18.6956522 21.5,18.6956522 C23.0461304,18.6956522 24.3043478,19.9538696 24.3043478,21.5 C24.3043478,23.0461304 23.0461304,24.3043478 21.5,24.3043478 L21.5,24.3043478 Z M24.0743913,17.6038261 C23.5845652,17.2785217 23.0311739,17.041087 22.4347826,16.9195652 L22.4347826,13.1804348 C24.050087,13.3636522 25.5158261,13.9899565 26.7216957,14.9565217 L24.0743913,17.6038261 L24.0743913,17.6038261 Z M20.5652174,16.9214348 C19.9688261,17.0429565 19.4173043,17.2803913 18.9256087,17.6056957 L16.2783043,14.9565217 C17.4841739,13.9899565 18.949913,13.3636522 20.5652174,13.1823043 L20.5652174,16.9214348 L20.5652174,16.9214348 Z M18.9256087,25.3961739 C19.4154348,25.7214783 19.9688261,25.958913 20.5652174,26.0804348 L20.5652174,29.8195652 C18.949913,29.6363478 17.4841739,29.0100435 16.2783043,28.0434783 L18.9256087,25.3961739 L18.9256087,25.3961739 Z M22.4347826,26.0785652 C23.0311739,25.9570435 23.5826957,25.7196087 24.0743913,25.3943043 L26.7216957,28.0434783 C25.5139565,29.0081739 24.0482174,29.6363478 22.4347826,29.8176957 L22.4347826,26.0785652 L22.4347826,26.0785652 Z M26.0785652,20.5652174 C25.9570435,19.9688261 25.7196087,19.4173043 25.3943043,18.9256087 L28.0434783,16.2783043 C29.0081739,17.4860435 29.6363478,18.9517826 29.8176957,20.5652174 L26.0785652,20.5652174 L26.0785652,20.5652174 Z" id="Shape"></path>
                    </g>
                </g>
            </g>
        </g>
    </g>
</svg>