<?xml version="1.0" encoding="UTF-8"?>
<svg width="44px" height="44px" viewBox="0 0 44 44" version="1.1" xmlns="http://www.w3.org/2000/svg" xmlns:xlink="http://www.w3.org/1999/xlink">
    <!-- Generator: sketchtool 51.2 (57519) - http://www.bohemiancoding.com/sketch -->
    <title>1101E28D-572C-4846-B6AE-2C8C128BD5FD</title>
    <desc>Created with sketchtool.</desc>
    <defs></defs>
    <g id="Actual" stroke="none" stroke-width="1" fill="none" fill-rule="evenodd">
        <g id="01-01-01-01-dashboard" transform="translate(-510.000000, -1206.000000)" fill="#CCCCCC">
            <g id="Shape-Copy-6" transform="translate(488.000000, 1184.000000)">
                <g id="ecommerce-shopping-bags" transform="translate(22.000000, 22.000000)">
                    <g id="icons">
                        <path d="M0.916666667,44 L11.9166667,44 L24.75,44 L43.0833333,44 C43.5893333,44 44,43.5893333 44,43.0833333 L44,8.25 C44,7.744 43.5893333,7.33333333 43.0833333,7.33333333 L34.8333333,7.33333333 C34.8333333,5.36433333 34.0651667,3.52366667 32.681,2.1615 C31.3078333,0.766333333 29.4671667,0 27.5,0 C23.4556667,0 20.1666667,3.289 20.1666667,7.33333333 L11.9166667,7.33333333 C11.4106667,7.33333333 11,7.744 11,8.25 L11,20.1666667 L0.916666667,20.1666667 C0.410666667,20.1666667 0,20.5773333 0,21.0833333 L0,43.0833333 C0,43.5893333 0.410666667,44 0.916666667,44 L0.916666667,44 Z M27.5,1.83333333 C28.974,1.83333333 30.3508333,2.40716667 31.3848333,3.45766667 C32.428,4.4825 33,5.85933333 33,7.33333333 L22,7.33333333 C22,4.301 24.4676667,1.83333333 27.5,1.83333333 L27.5,1.83333333 Z M12.8333333,9.16666667 L42.1666667,9.16666667 L42.1666667,42.1666667 L25.6666667,42.1666667 L25.6666667,21.0833333 C25.6666667,20.5773333 25.256,20.1666667 24.75,20.1666667 L12.8333333,20.1666667 L12.8333333,9.16666667 L12.8333333,9.16666667 Z M1.83333333,22 L23.8333333,22 L23.8333333,42.1666667 L11.9166667,42.1666667 L1.83333333,42.1666667 L1.83333333,22 L1.83333333,22 Z" id="Shape"></path>
                        <path d="M18.3333333,24.75 C18.3333333,24.244 17.9226667,23.8333333 17.4166667,23.8333333 C16.9106667,23.8333333 16.5,24.244 16.5,24.75 C16.5,27.2763333 14.8555,29.3333333 12.8333333,29.3333333 C10.8111667,29.3333333 9.16666667,27.2763333 9.16666667,24.75 C9.16666667,24.244 8.756,23.8333333 8.25,23.8333333 C7.744,23.8333333 7.33333333,24.244 7.33333333,24.75 C7.33333333,28.2883333 9.801,31.1666667 12.8333333,31.1666667 C15.8656667,31.1666667 18.3333333,28.2883333 18.3333333,24.75 L18.3333333,24.75 Z" id="Shape"></path>
                        <path d="M21.0833333,11 C19.5671667,11 18.3333333,12.2338333 18.3333333,13.75 C18.3333333,15.2661667 19.5671667,16.5 21.0833333,16.5 C22.5995,16.5 23.8333333,15.2661667 23.8333333,13.75 C23.8333333,12.2338333 22.5995,11 21.0833333,11 L21.0833333,11 Z M21.0833333,14.6666667 C20.5791667,14.6666667 20.1666667,14.256 20.1666667,13.75 C20.1666667,13.244 20.5791667,12.8333333 21.0833333,12.8333333 C21.5875,12.8333333 22,13.244 22,13.75 C22,14.256 21.5875,14.6666667 21.0833333,14.6666667 L21.0833333,14.6666667 Z" id="Shape"></path>
                        <path d="M33.9166667,16.5 C35.4328333,16.5 36.6666667,15.2661667 36.6666667,13.75 C36.6666667,12.2338333 35.4328333,11 33.9166667,11 C32.4005,11 31.1666667,12.2338333 31.1666667,13.75 C31.1666667,15.2661667 32.4005,16.5 33.9166667,16.5 L33.9166667,16.5 Z M33.9166667,12.8333333 C34.4208333,12.8333333 34.8333333,13.244 34.8333333,13.75 C34.8333333,14.256 34.4208333,14.6666667 33.9166667,14.6666667 C33.4125,14.6666667 33,14.256 33,13.75 C33,13.244 33.4125,12.8333333 33.9166667,12.8333333 L33.9166667,12.8333333 Z" id="Shape"></path>
                    </g>
                </g>
            </g>
        </g>
    </g>
</svg>