<?xml version="1.0" encoding="UTF-8"?>
<svg width="48px" height="44px" viewBox="0 0 48 44" version="1.1" xmlns="http://www.w3.org/2000/svg" xmlns:xlink="http://www.w3.org/1999/xlink">
    <!-- Generator: sketchtool 51.2 (57519) - http://www.bohemiancoding.com/sketch -->
    <title>AB39CC8E-66AD-47B3-ACEE-3724A3B16394</title>
    <desc>Created with sketchtool.</desc>
    <defs></defs>
    <g id="Actual" stroke="none" stroke-width="1" fill="none" fill-rule="evenodd">
        <g id="01-01-01-01-dashboard" transform="translate(-296.000000, -1350.000000)" fill="#E40000">
            <g id="Shape-Copy-9" transform="translate(272.000000, 1328.000000)">
                <g id="spa-sunbed" transform="translate(24.000000, 22.000000)">
                    <g id="icons">
                        <path d="M42.878,37.464 C41.934,36.52 40.68,36 39.344,36 L13.058,36 C12.092,36 11.18,35.53 10.616,34.744 L7.66,30.606 L8.94,29.51 C10.128,28.494 10.338,26.766 9.432,25.49 L7.34,22.556 C6.37,21.19 4.236,20.92 2.952,22.014 L2.066,22.77 L1.816,22.42 C1.494,21.97 0.87,21.868 0.42,22.188 C-0.03,22.508 -0.132,23.134 0.188,23.582 L1.064,24.808 C1.068,24.812 1.068,24.818 1.07,24.824 L2.66,27.044 L8.992,35.91 C9.718,36.924 10.8,37.61 12,37.872 L12,43 C12,43.552 12.448,44 13,44 C13.552,44 14,43.552 14,43 L14,42 L36,42 L36,43 C36,43.552 36.448,44 37,44 C37.552,44 38,43.552 38,43 L38,38 L39.344,38 C40.134,38 40.906,38.32 41.466,38.878 L46.294,43.706 C46.488,43.902 46.744,44 47,44 C47.256,44 47.512,43.902 47.708,43.708 C48.098,43.318 48.098,42.684 47.708,42.294 L42.878,37.464 L42.878,37.464 Z M4.248,23.536 C4.48,23.338 4.728,23.298 4.894,23.298 C5.224,23.298 5.52,23.45 5.71,23.718 L7.804,26.65 C8.106,27.076 8.036,27.652 7.64,27.992 L6.498,28.972 L4.918,26.766 L3.23,24.404 L4.248,23.536 L4.248,23.536 Z M36,40 L14,40 L14,38 L36,38 L36,40 L36,40 Z" id="Shape"></path>
                        <path d="M35,4 C35.552,4 36,3.552 36,3 L36,1 C36,0.448 35.552,0 35,0 C34.448,0 34,0.448 34,1 L34,3 C34,3.552 34.448,4 35,4 L35,4 Z" id="Shape"></path>
                        <path d="M34,23 L34,25 C34,25.552 34.448,26 35,26 C35.552,26 36,25.552 36,25 L36,23 C36,22.448 35.552,22 35,22 C34.448,22 34,22.448 34,23 L34,23 Z" id="Shape"></path>
                        <path d="M47,12 L45,12 C44.448,12 44,12.448 44,13 C44,13.552 44.448,14 45,14 L47,14 C47.552,14 48,13.552 48,13 C48,12.448 47.552,12 47,12 L47,12 Z" id="Shape"></path>
                        <path d="M23,14 L25,14 C25.552,14 26,13.552 26,13 C26,12.448 25.552,12 25,12 L23,12 C22.448,12 22,12.448 22,13 C22,13.552 22.448,14 23,14 L23,14 Z" id="Shape"></path>
                        <path d="M42.07,6.928 C42.326,6.928 42.582,6.83 42.778,6.636 L44.192,5.222 C44.582,4.832 44.582,4.198 44.192,3.808 C43.802,3.418 43.168,3.418 42.778,3.808 L41.364,5.222 C40.974,5.612 40.974,6.246 41.364,6.636 C41.558,6.832 41.814,6.928 42.07,6.928 L42.07,6.928 Z" id="Shape"></path>
                        <path d="M27.222,19.364 L25.808,20.778 C25.418,21.168 25.418,21.802 25.808,22.192 C26.004,22.388 26.26,22.484 26.516,22.484 C26.772,22.484 27.028,22.386 27.224,22.192 L28.638,20.778 C29.028,20.388 29.028,19.754 28.638,19.364 C28.248,18.974 27.614,18.974 27.222,19.364 L27.222,19.364 Z" id="Shape"></path>
                        <path d="M41.364,19.364 C40.974,19.754 40.974,20.388 41.364,20.778 L42.778,22.192 C42.974,22.388 43.23,22.484 43.486,22.484 C43.742,22.484 43.998,22.386 44.194,22.192 C44.584,21.802 44.584,21.168 44.194,20.778 L42.78,19.364 C42.386,18.974 41.754,18.974 41.364,19.364 L41.364,19.364 Z" id="Shape"></path>
                        <path d="M27.222,6.636 C27.418,6.832 27.674,6.928 27.93,6.928 C28.186,6.928 28.442,6.83 28.638,6.636 C29.028,6.246 29.028,5.612 28.638,5.222 L27.224,3.808 C26.834,3.418 26.2,3.418 25.81,3.808 C25.42,4.198 25.42,4.832 25.81,5.222 L27.222,6.636 L27.222,6.636 Z" id="Shape"></path>
                        <path d="M35,20 C38.86,20 42,16.86 42,13 C42,9.14 38.86,6 35,6 C31.14,6 28,9.14 28,13 C28,16.86 31.14,20 35,20 L35,20 Z M35,8 C37.758,8 40,10.244 40,13 C40,15.756 37.758,18 35,18 C32.242,18 30,15.756 30,13 C30,10.244 32.242,8 35,8 L35,8 Z" id="Shape"></path>
                    </g>
                </g>
            </g>
        </g>
    </g>
</svg>