<?xml version="1.0" encoding="UTF-8"?>
<svg width="98px" height="96px" viewBox="0 0 98 96" version="1.1" xmlns="http://www.w3.org/2000/svg" xmlns:xlink="http://www.w3.org/1999/xlink">
    <!-- Generator: sketchtool 51.2 (57519) - http://www.bohemiancoding.com/sketch -->
    <title>FDA0CBBD-2AC5-44D3-BD59-31E172D77827</title>
    <desc>Created with sketchtool.</desc>
    <defs>
        <linearGradient x1="0%" y1="0%" x2="100%" y2="88.9692827%" id="linearGradient-1">
            <stop stop-color="#FFB600" offset="0%"></stop>
            <stop stop-color="#F19700" offset="100%"></stop>
        </linearGradient>
        <path d="M563.364999,245.288065 L558.854033,247.493157 C555.946496,248.914446 552.435689,247.773716 550.918854,244.914861 L548.565527,240.479425 C547.698134,238.844606 546.12485,237.701549 544.302006,237.381796 L539.356437,236.514273 C536.168777,235.955113 533.998979,232.968642 534.452227,229.764207 L535.155429,224.792613 C535.414616,222.960176 534.813675,221.11067 533.526909,219.780543 L530.035777,216.17177 C527.785572,213.84574 527.785572,210.15426 530.035777,207.82823 L533.526909,204.219457 C534.813675,202.88933 535.414616,201.039824 535.155429,199.207387 L534.452227,194.235793 C533.998979,191.031358 536.168777,188.044887 539.356437,187.485727 L544.302006,186.618204 C546.12485,186.298451 547.698134,185.155394 548.565527,183.520575 L550.918854,179.085139 C552.435689,176.226284 555.946496,175.085554 558.854033,176.506843 L563.364999,178.711935 C565.027657,179.52469 566.972343,179.52469 568.635001,178.711935 L573.145967,176.506843 C576.053504,175.085554 579.564311,176.226284 581.081146,179.085139 L583.434473,183.520575 C584.301866,185.155394 585.87515,186.298451 587.697994,186.618204 L592.643563,187.485727 C595.831223,188.044887 598.001021,191.031358 597.547773,194.235793 L596.844571,199.207387 C596.585384,201.039824 597.186325,202.88933 598.473091,204.219457 L601.964223,207.82823 C604.214428,210.15426 604.214428,213.84574 601.964223,216.17177 L598.473091,219.780543 C597.186325,221.11067 596.585384,222.960176 596.844571,224.792613 L597.547773,229.764207 C598.001021,232.968642 595.831223,235.955113 592.643563,236.514273 L587.697994,237.381796 C585.87515,237.701549 584.301866,238.844606 583.434473,240.479425 L581.081146,244.914861 C579.564311,247.773716 576.053504,248.914446 573.145967,247.493157 L568.635001,245.288065 C566.972343,244.47531 565.027657,244.47531 563.364999,245.288065 Z" id="path-2"></path>
        <filter x="-27.5%" y="-17.5%" width="155.0%" height="155.0%" filterUnits="objectBoundingBox" id="filter-3">
            <feOffset dx="0" dy="8" in="SourceAlpha" result="shadowOffsetOuter1"></feOffset>
            <feGaussianBlur stdDeviation="6" in="shadowOffsetOuter1" result="shadowBlurOuter1"></feGaussianBlur>
            <feComposite in="shadowBlurOuter1" in2="SourceAlpha" operator="out" result="shadowBlurOuter1"></feComposite>
            <feColorMatrix values="0 0 0 0 0   0 0 0 0 0   0 0 0 0 0  0 0 0 0.1 0" type="matrix" in="shadowBlurOuter1"></feColorMatrix>
        </filter>
    </defs>
    <g id="Actual" stroke="none" stroke-width="1" fill="none" fill-rule="evenodd">
        <g id="01-01-01-01-dashboard" transform="translate(-517.000000, -172.000000)" fill-rule="nonzero">
            <g id="Star">
                <use fill="black" fill-opacity="1" filter="url(#filter-3)" xlink:href="#path-2"></use>
                <path stroke="url(#linearGradient-1)" stroke-width="3" d="M562.706249,243.940457 C564.784571,242.924512 567.215429,242.924512 569.293751,243.940457 L573.804717,246.145549 C575.98537,247.211515 578.618475,246.355968 579.756101,244.211827 L582.109429,239.776391 C583.19367,237.732867 585.160275,236.304045 587.43883,235.904354 L592.384399,235.036832 C594.775144,234.617461 596.402492,232.377608 596.062556,229.974282 L595.359355,225.002687 C595.035371,222.712141 595.786547,220.400259 597.395005,218.737601 L600.886137,215.128828 C602.57379,213.384305 602.57379,210.615695 600.886137,208.871172 L597.395005,205.262399 C595.786547,203.599741 595.035371,201.287859 595.359355,198.997313 L596.062556,194.025718 C596.402492,191.622392 594.775144,189.382539 592.384399,188.963168 L587.43883,188.095646 C585.160275,187.695955 583.19367,186.267133 582.109429,184.223609 L579.756101,179.788173 C578.618475,177.644032 575.98537,176.788485 573.804717,177.854451 L569.293751,180.059543 C567.215429,181.075488 564.784571,181.075488 562.706249,180.059543 L558.195283,177.854451 C556.01463,176.788485 553.381525,177.644032 552.243899,179.788173 L549.890571,184.223609 C548.80633,186.267133 546.839725,187.695955 544.56117,188.095646 L539.615601,188.963168 C537.224856,189.382539 535.597508,191.622392 535.937444,194.025718 L536.640645,198.997313 C536.964629,201.287859 536.213453,203.599741 534.604995,205.262399 L531.113863,208.871172 C529.42621,210.615695 529.42621,213.384305 531.113863,215.128828 L534.604995,218.737601 C536.213453,220.400259 536.964629,222.712141 536.640645,225.002687 L535.937444,229.974282 C535.597508,232.377608 537.224856,234.617461 539.615601,235.036832 L544.56117,235.904354 C546.839725,236.304045 548.80633,237.732867 549.890571,239.776391 L552.243899,244.211827 C553.381525,246.355968 556.01463,247.211515 558.195283,246.145549 L562.706249,243.940457 Z" stroke-linejoin="square" fill="#FFFFFF" fill-rule="evenodd"></path>
            </g>
        </g>
    </g>
</svg>