<?xml version="1.0" encoding="UTF-8"?>
<svg width="89px" height="86px" viewBox="0 0 89 86" version="1.1" xmlns="http://www.w3.org/2000/svg" xmlns:xlink="http://www.w3.org/1999/xlink">
    <!-- Generator: sketchtool 51.2 (57519) - http://www.bohemiancoding.com/sketch -->
    <title>917EF755-7832-4E5F-923E-61C8C7EDB998</title>
    <desc>Created with sketchtool.</desc>
    <defs>
        <path d="M49.3649991,85.2880653 L44.854033,87.493157 C41.9464958,88.914446 38.4356888,87.7737156 36.9188545,84.9148612 L34.5655267,80.4794252 C33.6981339,78.8446061 32.1248501,77.7015485 30.3020056,77.3817958 L25.3564371,76.5142732 C22.1687773,75.9551126 19.9989793,72.9686418 20.452227,69.7642071 L21.1554287,64.7926127 C21.4146157,62.9601756 20.8136748,61.1106695 19.5269085,59.7805431 L16.0357765,56.1717703 C13.785572,53.8457404 13.785572,50.1542596 16.0357765,47.8282297 L19.5269085,44.2194569 C20.8136748,42.8893305 21.4146157,41.0398244 21.1554287,39.2073873 L20.452227,34.2357929 C19.9989793,31.0313582 22.1687773,28.0448874 25.3564371,27.4857268 L30.3020056,26.6182042 C32.1248501,26.2984515 33.6981339,25.1553939 34.5655267,23.5205748 L36.9188545,19.0851388 C38.4356888,16.2262844 41.9464958,15.085554 44.854033,16.506843 L49.3649991,18.7119347 C51.0276571,19.5246905 52.9723429,19.5246905 54.6350009,18.7119347 L59.145967,16.506843 C62.0535042,15.085554 65.5643112,16.2262844 67.0811455,19.0851388 L69.4344733,23.5205748 C70.3018661,25.1553939 71.8751499,26.2984515 73.6979944,26.6182042 L78.6435629,27.4857268 C81.8312227,28.0448874 84.0010207,31.0313582 83.547773,34.2357929 L82.8445713,39.2073873 C82.5853843,41.0398244 83.1863252,42.8893305 84.4730915,44.2194569 L87.9642235,47.8282297 C90.214428,50.1542596 90.214428,53.8457404 87.9642235,56.1717703 L84.4730915,59.7805431 C83.1863252,61.1106695 82.5853843,62.9601756 82.8445713,64.7926127 L83.547773,69.7642071 C84.0010207,72.9686418 81.8312227,75.9551126 78.6435629,76.5142732 L73.6979944,77.3817958 C71.8751499,77.7015485 70.3018661,78.8446061 69.4344733,80.4794252 L67.0811455,84.9148612 C65.5643112,87.7737156 62.0535042,88.914446 59.145967,87.493157 L54.6350009,85.2880653 C52.9723429,84.4753095 51.0276571,84.4753095 49.3649991,85.2880653 Z" id="path-1"></path>
        <filter x="-16.9%" y="-9.4%" width="133.8%" height="133.8%" filterUnits="objectBoundingBox" id="filter-2">
            <feOffset dx="0" dy="6" in="SourceAlpha" result="shadowOffsetOuter1"></feOffset>
            <feGaussianBlur stdDeviation="3.5" in="shadowOffsetOuter1" result="shadowBlurOuter1"></feGaussianBlur>
            <feColorMatrix values="0 0 0 0 0   0 0 0 0 0   0 0 0 0 0  0 0 0 0.1 0" type="matrix" in="shadowBlurOuter1"></feColorMatrix>
        </filter>
    </defs>
    <g id="Actual" stroke="none" stroke-width="1" fill="none" fill-rule="evenodd">
        <g id="01-01-01-02-dashboard-request-rank" transform="translate(-787.000000, -321.000000)" fill-rule="nonzero">
            <g id="star-hover" transform="translate(779.000000, 306.000000)">
                <g id="Star-Copy-5">
                    <use fill="black" fill-opacity="1" filter="url(#filter-2)" xlink:href="#path-1"></use>
                    <use fill="#CFCFCF" xlink:href="#path-1"></use>
                </g>
                <rect id="Rectangle-9" fill="#D8D8D8" opacity="0" x="0" y="0" width="104" height="104"></rect>
            </g>
        </g>
    </g>
</svg>