<?xml version="1.0" encoding="UTF-8"?>
<svg width="76px" height="74px" viewBox="0 0 76 74" version="1.1" xmlns="http://www.w3.org/2000/svg" xmlns:xlink="http://www.w3.org/1999/xlink">
    <!-- Generator: sketchtool 51.2 (57519) - http://www.bohemiancoding.com/sketch -->
    <title>4FDE5F5D-33C4-4BA3-BDD6-D648AA211287</title>
    <desc>Created with sketchtool.</desc>
    <defs></defs>
    <g id="Actual" stroke="none" stroke-width="1" fill="none" fill-rule="evenodd">
        <g id="01-01-01-01-dashboard" transform="translate(-661.000000, -175.000000)" fill="#E9E8E8" fill-rule="nonzero">
            <path d="M696.364999,245.288065 L691.854033,247.493157 C688.946496,248.914446 685.435689,247.773716 683.918854,244.914861 L681.565527,240.479425 C680.698134,238.844606 679.12485,237.701549 677.302006,237.381796 L672.356437,236.514273 C669.168777,235.955113 666.998979,232.968642 667.452227,229.764207 L668.155429,224.792613 C668.414616,222.960176 667.813675,221.11067 666.526909,219.780543 L663.035777,216.17177 C660.785572,213.84574 660.785572,210.15426 663.035777,207.82823 L666.526909,204.219457 C667.813675,202.88933 668.414616,201.039824 668.155429,199.207387 L667.452227,194.235793 C666.998979,191.031358 669.168777,188.044887 672.356437,187.485727 L677.302006,186.618204 C679.12485,186.298451 680.698134,185.155394 681.565527,183.520575 L683.918854,179.085139 C685.435689,176.226284 688.946496,175.085554 691.854033,176.506843 L696.364999,178.711935 C698.027657,179.52469 699.972343,179.52469 701.635001,178.711935 L706.145967,176.506843 C709.053504,175.085554 712.564311,176.226284 714.081146,179.085139 L716.434473,183.520575 C717.301866,185.155394 718.87515,186.298451 720.697994,186.618204 L725.643563,187.485727 C728.831223,188.044887 731.001021,191.031358 730.547773,194.235793 L729.844571,199.207387 C729.585384,201.039824 730.186325,202.88933 731.473091,204.219457 L734.964223,207.82823 C737.214428,210.15426 737.214428,213.84574 734.964223,216.17177 L731.473091,219.780543 C730.186325,221.11067 729.585384,222.960176 729.844571,224.792613 L730.547773,229.764207 C731.001021,232.968642 728.831223,235.955113 725.643563,236.514273 L720.697994,237.381796 C718.87515,237.701549 717.301866,238.844606 716.434473,240.479425 L714.081146,244.914861 C712.564311,247.773716 709.053504,248.914446 706.145967,247.493157 L701.635001,245.288065 C699.972343,244.47531 698.027657,244.47531 696.364999,245.288065 Z" id="Star-disabled"></path>
        </g>
    </g>
</svg>