<?xml version="1.0" encoding="UTF-8"?>
<svg width="42px" height="42px" viewBox="0 0 42 42" version="1.1" xmlns="http://www.w3.org/2000/svg" xmlns:xlink="http://www.w3.org/1999/xlink">
    <!-- Generator: sketchtool 51.2 (57519) - http://www.bohemiancoding.com/sketch -->
    <title>92A6E1F5-6C47-446A-82B8-16E7885BC937</title>
    <desc>Created with sketchtool.</desc>
    <defs></defs>
    <g id="Actual" stroke="none" stroke-width="1" fill="none" fill-rule="evenodd">
        <g id="01-01-01-01-dashboard" transform="translate(-510.000000, -1350.000000)" fill="#E40000">
            <g id="Shape-Copy-10" transform="translate(488.000000, 1328.000000)">
                <g id="gaming-tetris" transform="translate(22.000000, 22.000000)">
                    <g id="icons">
                        <path d="M31.9565217,29.2173913 L41.0869565,29.2173913 C41.5909565,29.2173913 42,28.8083478 42,28.3043478 L42,19.173913 L42,10.0434783 L42,0.913043478 C42,0.409043478 41.5909565,0 41.0869565,0 L31.9565217,0 C31.4525217,0 31.0434783,0.409043478 31.0434783,0.913043478 L31.0434783,9.13043478 L22.826087,9.13043478 C22.322087,9.13043478 21.9130435,9.53947826 21.9130435,10.0434783 L21.9130435,19.173913 C21.9130435,19.677913 22.322087,20.0869565 22.826087,20.0869565 L31.0434783,20.0869565 L31.0434783,28.3043478 C31.0434783,28.8083478 31.4525217,29.2173913 31.9565217,29.2173913 L31.9565217,29.2173913 Z M40.173913,10.9565217 L40.173913,18.2608696 L32.8695652,18.2608696 L32.8695652,10.9565217 L40.173913,10.9565217 L40.173913,10.9565217 Z M40.173913,27.3913043 L32.8695652,27.3913043 L32.8695652,20.0869565 L40.173913,20.0869565 L40.173913,27.3913043 L40.173913,27.3913043 Z M32.8695652,1.82608696 L40.173913,1.82608696 L40.173913,9.13043478 L32.8695652,9.13043478 L32.8695652,1.82608696 L32.8695652,1.82608696 Z M23.7391304,10.9565217 L31.0434783,10.9565217 L31.0434783,18.2608696 L23.7391304,18.2608696 L23.7391304,10.9565217 L23.7391304,10.9565217 Z" id="Shape"></path>
                        <path d="M0.913043478,42 L10.0434783,42 L19.173913,42 L28.3043478,42 C28.8083478,42 29.2173913,41.5909565 29.2173913,41.0869565 L29.2173913,31.9565217 C29.2173913,31.4525217 28.8083478,31.0434783 28.3043478,31.0434783 L19.173913,31.0434783 L10.9565217,31.0434783 L10.9565217,22.826087 L10.9565217,13.6956522 L10.9565217,4.56521739 C10.9565217,4.06121739 10.5474783,3.65217391 10.0434783,3.65217391 L0.913043478,3.65217391 C0.409043478,3.65217391 0,4.06121739 0,4.56521739 L0,13.6956522 L0,22.826087 L0,31.9565217 L0,41.0869565 C0,41.5909565 0.409043478,42 0.913043478,42 L0.913043478,42 Z M9.13043478,31.0434783 L1.82608696,31.0434783 L1.82608696,23.7391304 L9.13043478,23.7391304 L9.13043478,31.0434783 L9.13043478,31.0434783 Z M9.13043478,21.9130435 L1.82608696,21.9130435 L1.82608696,14.6086957 L9.13043478,14.6086957 L9.13043478,21.9130435 L9.13043478,21.9130435 Z M1.82608696,32.8695652 L9.13043478,32.8695652 L9.13043478,40.173913 L1.82608696,40.173913 L1.82608696,32.8695652 L1.82608696,32.8695652 Z M27.3913043,40.173913 L20.0869565,40.173913 L20.0869565,32.8695652 L27.3913043,32.8695652 L27.3913043,40.173913 L27.3913043,40.173913 Z M18.2608696,40.173913 L10.9565217,40.173913 L10.9565217,32.8695652 L18.2608696,32.8695652 L18.2608696,40.173913 L18.2608696,40.173913 Z M1.82608696,5.47826087 L9.13043478,5.47826087 L9.13043478,12.7826087 L1.82608696,12.7826087 L1.82608696,5.47826087 L1.82608696,5.47826087 Z" id="Shape"></path>
                    </g>
                </g>
            </g>
        </g>
    </g>
</svg>