<?xml version="1.0" encoding="UTF-8"?>
<svg width="20px" height="20px" viewBox="0 0 20 20" version="1.1" xmlns="http://www.w3.org/2000/svg" xmlns:xlink="http://www.w3.org/1999/xlink">
    <!-- Generator: sketchtool 51.2 (57519) - http://www.bohemiancoding.com/sketch -->
    <title>1FDE6D8E-A6C5-4B5E-9895-96E207D6C0D9</title>
    <desc>Created with sketchtool.</desc>
    <defs></defs>
    <g id="Actual" stroke="none" stroke-width="1" fill="none" fill-rule="evenodd">
        <g id="07-03-01-01-profile-leader-edit-mentor" transform="translate(-70.000000, -2016.000000)" fill="#FFFFFF">
            <path d="M84.506,2025 C84.31,2023 83.57,2020.392 82.3,2018.341 C85.283,2019.239 87.533,2022 87.93,2025 L84.506,2025 Z M81,2025 L79,2025 L77.493,2025 C77.714,2023 78.558,2020.45 79.994,2018.503 C81.434,2020.449 82.28,2023 82.504,2025 L81,2025 Z M75.492,2025 L72.069,2025 C72.466,2022 74.71,2019.244 77.688,2018.344 C76.422,2020.394 75.686,2023 75.492,2025 L75.492,2025 Z M80.532,2016.027 C80.451,2016.023 80.371,2016.017 80.29,2016.015 C80.192,2016.012 80.097,2016 80,2016 C79.907,2016 79.818,2016.011 79.726,2016.014 C79.634,2016.016 79.543,2016.023 79.452,2016.028 C74.186,2016.314 70,2020.662 70,2026 C70,2026.338 70.018,2027 70.051,2027 L72.069,2027 L75.467,2027 L77.467,2027 L79,2027 L79,2033 C79,2033.552 78.552,2034 78,2034 C77.447,2034 77,2033.552 77,2033 L77,2032 C77,2031.448 76.552,2031 76,2031 C75.447,2031 75,2031.448 75,2032 L75,2034 C75,2035.105 75.895,2036 77,2036 L79,2036 C80.104,2036 81,2035.105 81,2034 L81,2027 L82.532,2027 L84.532,2027 L87.93,2027 L89.948,2027 C89.981,2027 90,2026.338 90,2026 C90,2020.657 85.806,2016.305 80.532,2016.027 L80.532,2016.027 Z" id="umbrella_round-[#771]"></path>
        </g>
    </g>
</svg>