<?xml version="1.0" encoding="UTF-8"?>
<svg width="20px" height="20px" viewBox="0 0 20 20" version="1.1" xmlns="http://www.w3.org/2000/svg" xmlns:xlink="http://www.w3.org/1999/xlink">
    <!-- Generator: sketchtool 51.2 (57519) - http://www.bohemiancoding.com/sketch -->
    <title>D7B4D6BD-17F4-44A1-B39A-FFFA722CF295</title>
    <desc>Created with sketchtool.</desc>
    <defs></defs>
    <g id="Actual" stroke="none" stroke-width="1" fill="none" fill-rule="evenodd">
        <g id="02-02-01-01-profile-leader-empty" transform="translate(-70.000000, -648.000000)" fill="#FFFFFF">
            <path d="M73.2382006,656.948654 C71.4475079,655.158547 71.6710893,652.106996 73.9069029,650.631229 C75.5332276,649.557573 77.7179953,649.880078 79.0962366,651.257869 L79.7353322,651.896756 C80.1345117,652.295804 80.7807537,652.295804 81.1789123,651.896756 C81.5780918,651.498727 81.5780918,650.852696 81.1789123,650.453648 L80.6388459,649.913758 C78.26725,647.542937 74.3714213,647.302079 71.9293819,649.600438 C69.4026062,651.979423 69.3576857,655.956645 71.7946205,658.391762 L72.5164106,659.113316 C72.9145692,659.512365 73.5618321,659.512365 73.9599907,659.113316 C74.3591702,658.715288 74.3591702,658.069257 73.9599907,657.670208 L73.2382006,656.948654 Z M88.0731815,657.345662 L87.5525125,656.825163 C87.153333,656.426114 86.507091,656.426114 86.1089324,656.825163 C85.7097529,657.223192 85.7097529,657.869222 86.1089324,658.268271 L86.748028,658.907158 C88.1262693,660.284948 88.4478589,662.469002 87.3748726,664.094794 C85.898623,666.329877 82.8450529,666.552364 81.055381,664.763278 L80.333591,664.041724 C79.9344115,663.642675 79.2881694,663.642675 78.8900108,664.041724 C78.4908313,664.439752 78.4908313,665.085783 78.8900108,665.484832 L79.6118009,666.206386 C82.0415892,668.63538 86.0058195,668.597618 88.3866037,666.09106 C90.7071537,663.648799 90.4560075,659.727709 88.0731815,657.345662 L88.0731815,657.345662 Z M83.9425413,663.32017 L74.6817808,654.062438 C74.2836222,653.663389 74.2836222,653.017358 74.6817808,652.61831 C75.0809603,652.220281 75.7272023,652.220281 76.1253609,652.61831 L85.3871423,661.876041 C85.7853009,662.27509 85.7853009,662.921121 85.3871423,663.32017 C84.9879628,663.718198 84.3417208,663.718198 83.9425413,663.32017 L83.9425413,663.32017 Z" id="url-[#1424]"></path>
        </g>
    </g>
</svg>