<?xml version="1.0" encoding="UTF-8"?>
<svg width="44px" height="44px" viewBox="0 0 44 44" version="1.1" xmlns="http://www.w3.org/2000/svg" xmlns:xlink="http://www.w3.org/1999/xlink">
    <!-- Generator: sketchtool 51.2 (57519) - http://www.bohemiancoding.com/sketch -->
    <title>D40DE87C-5BF6-484E-842D-34F5D5054D6A</title>
    <desc>Created with sketchtool.</desc>
    <defs></defs>
    <g id="Actual" stroke="none" stroke-width="1" fill="none" fill-rule="evenodd">
        <g id="07-02-01-01-profile-pretender" transform="translate(-346.000000, -876.000000)" fill="#B3B3B3" fill-rule="nonzero">
            <path d="M366.641598,915.994354 C367.193848,915.98813 367.64658,916.430772 367.652803,916.983021 C367.659027,917.535271 367.216385,917.988003 366.664136,917.994227 C366.322585,917.998076 365.978155,918 365.630845,918 C358.970954,918 353.364733,917.292545 348.80785,915.869232 C346.90203,915.273962 345.727036,913.364464 346.054603,911.394896 L346.898316,906.321905 C347.422616,903.169436 350.015415,900.7723 353.199263,900.496452 C357.020593,900.165383 361.164314,900 365.630845,900 C365.987124,900 366.341346,900.001052 366.693513,900.003157 C367.245787,900.006458 367.690819,900.45684 367.687518,901.009115 C367.684218,901.56139 367.233835,902.006422 366.68156,902.003121 C366.33339,902.00104 365.983151,902 365.630845,902 C361.219906,902 357.133448,902.163097 353.371893,902.488988 C351.097717,902.686022 349.245716,904.398263 348.871216,906.650027 L348.027503,911.723018 C347.863719,912.707802 348.451217,913.662552 349.404128,913.960187 C353.748944,915.317262 359.159294,916 365.630845,916 C365.970674,916 366.307592,915.998118 366.641598,915.994354 Z M357.630845,886 C357.630845,890.418975 361.212171,894 365.630845,894 C370.04982,894 373.630845,890.418674 373.630845,886 C373.630845,881.581025 370.04952,878 365.630845,878 C361.211871,878 357.630845,881.581326 357.630845,886 Z M355.630845,886 C355.630845,880.476794 360.107264,876 365.630845,876 C371.154052,876 375.630845,880.476418 375.630845,886 C375.630845,891.523206 371.154427,896 365.630845,896 C360.107639,896 355.630845,891.523582 355.630845,886 Z M369.630845,909 C369.630845,913.971339 373.659845,918 378.630845,918 C383.602184,918 387.630845,913.971001 387.630845,909 C387.630845,904.028661 383.601846,900 378.630845,900 C373.659507,900 369.630845,904.028999 369.630845,909 Z M367.630845,909 C367.630845,902.924467 372.5549,898 378.630845,898 C384.706378,898 389.630845,902.924054 389.630845,909 C389.630845,915.075533 384.706791,920 378.630845,920 C372.555313,920 367.630845,915.075946 367.630845,909 Z M386.337952,902.707107 L372.337952,916.707107 C371.395143,917.649916 369.98093,916.235702 370.923739,915.292893 L384.923739,901.292893 C385.866548,900.350084 387.280761,901.764298 386.337952,902.707107 Z" id="User-Block"></path>
        </g>
    </g>
</svg>